<?xml version="1.0" encoding="iso-8859-1"?>
<!-- Generator: Adobe Illustrator 22.1.0, SVG Export Plug-In . SVG Version: 6.00 Build 0)  -->
<svg version="1.1" id="backpack" xmlns="http://www.w3.org/2000/svg" xmlns:xlink="http://www.w3.org/1999/xlink" x="0px" y="0px"
	 viewBox="0 0 204 258" style="enable-background:new 0 0 204 258;" xml:space="preserve">
<g id="redshoe">
	<path style="fill:none;stroke:#FF0400;stroke-miterlimit:10;" d="M74.247,233.41c0,0-1.16,1.503-4.298,2.843
		c-1.882,0.805-5.144,0.966-7.424,2.347c-5.423,3.285-11.166,8.727-14.029,9.632c-6.074,1.92-10.833,5.652-10.833,5.652l-1.92-6.074
		c0,0,11.543-8.104,14.243-8.957s6.997-3.697,11.116-9.454c0,0,0.923-1.777,5.647-3.27s3.871-4.193,3.871-4.193
		s-2.694-2.86-11.578,1.433c0,0-8.566-1.746-10.094-4.232c0,0,11.726,8.913,13.29,9.161"/>
	<path style="fill:none;stroke:#FF0400;stroke-miterlimit:10;" d="M48.948,219.137c0,0-4.476-0.07-4.049,1.28
		c0.427,1.35,8.208,4.829,8.208,4.829l2.025-0.64"/>
	<path style="fill:none;stroke:#FF0400;stroke-miterlimit:10;" d="M35.743,247.811c0,0-10.124,3.201-12.932-3.335
		s-4.124-8.347-0.714-11.652c3.409-3.305,5.36-13.573,10.62-6.327c0,0-4.973,3.057-1.668,6.466c0,0-6.714-0.104-7.886,3.236
		c-1.171,3.34,3.484,6.322,3.484,6.322s25.792-8.793,30.533-8.488"/>
	<path style="fill:none;stroke:#FF0400;stroke-miterlimit:10;" d="M28.275,224.192c0,0-0.502-10.98-1.604-12.116
		c-1.102-1.136,3.831-16.059,5.395-15.811"/>
	<path style="fill:none;stroke:#FF0400;stroke-miterlimit:10;" d="M33.987,202.339c0,0-6.248,13.111,2.456,14.813l2.169,4.511"/>
	<path style="fill:none;stroke:#FF0400;stroke-miterlimit:10;" d="M36.021,229.906c2.025-0.64,3.409-3.305,3.409-3.305
		s5.116,2.094,7.32,4.367c2.203,2.273-2.734,3.092-2.734,3.092L36.021,229.906c-1.136,1.102-3.375,1.067-3.375,1.067l7.533,5.042
		c0,0,4.476,0.07,3.836-1.955"/>
	<path style="fill:none;stroke:#FF0400;stroke-miterlimit:10;" d="M49.321,166.311l8.173,7.067l5.508,5.682l-1.598,1.99
		c0,0-10.838-8.451-11.657-13.389c-0.819-4.938-0.104,6.714-0.104,6.714s-0.07,4.476,6.68,2.342"/>
	<path style="fill:none;stroke:#FF0400;stroke-miterlimit:10;" d="M51.172,176.861c0,0,1.638,9.876,10.233,4.189"/>
	<path style="fill:none;stroke:#FF0400;stroke-miterlimit:10;" d="M61.405,181.05c0,0,19.682,1.201,24.654-1.856"/>
	<path style="fill:none;stroke:#FF0400;stroke-miterlimit:10;" d="M63.003,179.06l10.833-5.652c0,0,8.526-1.211,10.089-0.963"/>
	<path style="fill:none;stroke:#FF0400;stroke-miterlimit:10;" d="M56.006,182.757c0,0,10.66,5.538,13.677-1.355"/>
	<path style="fill:none;stroke:#FF0400;stroke-miterlimit:10;" d="M76.517,116.14c0,0-0.313,20.143,2.248,28.242
		c0,0,7.225,39.289,8.327,40.425l3.379,13.037l8.312-1.886l-0.854-2.7l-7.761,2.454"/>
	<path style="fill:none;stroke:#FF0400;stroke-miterlimit:10;" d="M97.929,193.258c0,0-9.071-35.736-8.61-36.624
		c0.462-0.888-3.523-18.188-4.411-18.649c-0.888-0.462-2.704-13.25-2.704-13.25s-0.074-9.627-0.963-10.089"/>
	<path style="fill:none;stroke:#FF0400;stroke-miterlimit:10;" d="M82.839,112.656c0,0,6.513,10.307,7.139,12.903
		c0.079,0.327,0.223,0.629,0.435,0.89c0.911,1.121,3.074,3.937,2.878,5.175c0,0,8.605,22.52,9.493,22.982
		c0.888,0.462-8.099,2.561-8.099,2.561s-7.111-17.796-7.325-18.471s-3.116-9.552-4.401-9.074"/>
	<path style="fill:none;stroke:#FF0400;stroke-miterlimit:10;" d="M73.604,116.318c0,0-1.062,10.729-0.209,13.429l1.608,26.217
		c0,0-4.117,2.044-7.741,6.53c0,0,0.163-37.542,0.625-38.43c0.462-0.888,1.772-13.181,3.797-13.821"/>
	<path style="fill:none;stroke:#FF0400;stroke-miterlimit:10;" d="M20.063,104.293c0,0-1.445,35.348-0.591,38.048
		s3.841,12.148,4.943,13.285c1.102,1.136,2.134,6.749,2.774,8.774c0.64,2.025,4.585,7.459,4.585,7.459l5.434-3.945
		c0,0-16.53-31.15-17.919-42.589"/>
	<path style="fill:none;stroke:#FF0400;stroke-miterlimit:10;" d="M19.149,134.277c0,0-7.612-28.773-6.689-30.55
		s-0.109-7.389,1.702-8.704"/>
	<path style="fill:none;stroke:#FF0400;stroke-miterlimit:10;" d="M15.547,92.358c0,0,6.397,6.144,5.047,6.571
		c0,0,24.016-3.572,31.299,2.725c0,0,1.638,9.876,10.019,3.514c0,0,4.938-0.819,4.903,1.419"/>
	<path style="fill:none;stroke:#FF0400;stroke-miterlimit:10;" d="M15.547,92.358c0,0,29.13-1.786,31.334,0.487
		c2.203,2.273,5.07,3.424,7.181,13.32"/>
	<path style="fill:none;stroke:#FF0400;stroke-miterlimit:10;" d="M50.965,89.326c0,0-1.528-2.486-1.067-3.375
		c0.462-0.888,5.186-2.382,5.186-2.382l1.742,3.161"/>
	<path style="fill:none;stroke:#FF0400;stroke-miterlimit:10;" d="M56.826,86.731c-1.35,0.427-6.536,2.809-5.861,2.595"/>
	<path style="fill:none;stroke:#FF0400;stroke-miterlimit:10;" d="M62.23,99.128c0,0-3.553-1.846-1.955-3.836
		c1.598-1.99-5.007,5.295-5.007,5.295s-0.283,3.801,2.203,2.273C59.957,101.331,62.23,99.128,62.23,99.128z"/>
	<path style="fill:none;stroke:#FF0400;stroke-miterlimit:10;" d="M65.391,97.386c0,0,7.96,6.392,9.062,7.528"/>
	<path style="fill:none;stroke:#FF0400;stroke-miterlimit:10;" d="M61.734,102.254c0,0,11.121,4.65,10.66,5.538"/>
	<path style="fill:none;stroke:#FF0400;stroke-miterlimit:10;" d="M74.631,107.827l3.161-1.742l4.62,5.221
		c0,0,2.273-2.203,1.385-2.665c-0.888-0.462-4.62-5.221-4.62-5.221s-0.71,2.451-1.385,2.665"/>
	<path style="fill:none;stroke:#FF0400;stroke-miterlimit:10;" d="M82.412,111.306c0,0-1.385,2.665-2.273,2.203
		c-0.888-0.462-6.858-5.255-5.508-5.682"/>
	<path style="fill:none;stroke:#FF0400;stroke-miterlimit:10;" d="M167.61,131.882c0,0,0.357,5.826-3.375,1.067
		c-3.732-4.759-5.26-7.245-5.012-8.809c0.248-1.563,1.985-12.506-3.379-13.037c-5.365-0.531-18.724-5.216-20.217-9.94
		c-1.494-4.724-3.201-10.124-3.201-10.124s1.211,8.526,15.458,13.672c14.247,5.146,16.912,6.531,17.304,10.119
		c0.116,1.064,0.102,2.953,0.105,5.097C165.301,125.013,165.41,131.533,167.61,131.882z"/>
	<path style="fill:none;stroke:#FF0400;stroke-miterlimit:10;" d="M166.434,121.118l10.625,7.776l5.434-3.945
		c0,0-26.331-19.885-25.656-20.099s-18.585-14.168-21.498-13.99l15.129,14.79"/>
	<path style="fill:none;stroke:#FF0400;stroke-miterlimit:10;" d="M129.438,81.591l-0.531,5.365c0,0,1.315,1.811,1.99,1.598
		c0.675-0.213,1.206-5.578,1.206-5.578s1.99,1.598,2.913-0.179c0.923-1.777-0.566,7.603-0.566,7.603s-3.801-0.283-3.553-1.846"/>
	<path style="fill:none;stroke:#FF0400;stroke-miterlimit:10;" d="M129.438,81.591c0,0,2.238,0.035,2.665,1.385"/>
	<path style="fill:none;stroke:#FF0400;stroke-miterlimit:10;" d="M141.448,86.702c0,0,17.017-0.183,17.443,1.166l6.819-6.61
		c0,0-24.371-1.946-27.532-0.204"/>
	<path style="fill:none;stroke:#FF0400;stroke-miterlimit:10;" d="M127.761,59.85c0,0,5.474,7.92,2.312,9.662
		c0,0,3.449,8.56,2.312,9.662c-0.722,0.7,1.15-2.717,2.466-6.97c0.755-2.44,1.326-5.155,1.118-7.526"/>
	<path style="fill:none;stroke:#FF0400;stroke-miterlimit:10;" d="M140.162,68.549l-5.221,4.62c0,0,5.765,6.262,6.632,6.771"/>
</g>
<g id="body">
	<path style="fill:none;stroke:#FFFFFF;stroke-miterlimit:10;" d="M65.255,221.406"/>
	<path style="fill:none;stroke:#FFFFFF;stroke-miterlimit:10;" d="M113.563,253.273l23.002-54.042c0,0-0.109-7.389,17.439-12.937
		c17.548-5.548,24.545-9.245,34.138-7.081c7.152,1.613,12.952,2.21,14.91,6.577c0.668,1.49,0.89,3.419,0.565,5.976
		c-1.276,10.054-4.288,31.051-11.782,37.874c-7.494,6.823-44.325,16.212-51.115,19.13c-5.719,2.458-25.429,11.897-27.461,7.363
		C112.969,255.485,113.04,254.552,113.563,253.273z"/>
	<path style="fill:none;stroke:#FFFFFF;stroke-miterlimit:10;" d="M203.081,183.027c0,0-7.573-16.908-9.597-16.267
		c0,0-0.819-4.938-3.945-5.434c0,0-5.583-15.31-7.146-15.558c0,0,0.283-3.801-5.474-7.92l-4.516-11.935"/>
	<path style="fill:none;stroke:#FFFFFF;stroke-miterlimit:10;" d="M163.186,108.937c0,0-13.461-21.883-15.024-22.131"/>
	<polyline style="fill:none;stroke:#FFFFFF;stroke-miterlimit:10;" points="144.251,79.135 140.162,68.549 141.76,66.559 
		138.063,59.562 127.404,54.024 124.774,50.401 124.843,45.925 129.533,46.669 134.366,52.565 135.399,58.178 	"/>
	<path style="fill:none;stroke:#FFFFFF;stroke-miterlimit:10;" d="M79.334,172.49c-1.594-4.439-3.178-7.641-3.369-6.437
		c0,0-33.185-11.037-34.892-16.436c-0.253-0.8-0.738-1.869-1.386-3.154c-3.73-7.385-12.884-21.893-14.612-33.361
		c0,0-4.015-0.958-5.369-14.635"/>
	<path style="fill:none;stroke:#FFFFFF;stroke-miterlimit:10;" d="M79.334,172.49"/>
	<path style="fill:none;stroke:#FFFFFF;stroke-miterlimit:10;" d="M113.298,255.956c0,0-23.13-9.762-32.088-24.004
		s-9.597-16.267-9.597-16.267s-5.757-4.119-8.53-12.893c-2.774-8.774-4.943-13.285-4.943-13.285
		c3.135,9.915,1.148-14.567,11.635,0.405c8.42,8.434,0.705,2.217,11.635,0.405c1.961-0.325,1.584-4.71,0.387-9.684"/>
	<path style="fill:none;stroke:#FFFFFF;stroke-miterlimit:10;" d="M41.357,145.815c0,0,12.789-1.816,9.98-8.352
		c-2.809-6.536-28.565-26.767-28.565-26.767"/>
	<path style="fill:none;stroke:#FFFFFF;stroke-miterlimit:10;" d="M11.746,92.075l-4.441-2.308L0.337,77.123
		c0,0-0.605-4.263,1.419-4.903C3.781,71.58,0.58,61.456,0.58,61.456s7.742-8.387,6.675-11.761l7.811-12.863
		c0,0-1.211-8.526,0.849-11.404s10.441-9.24,11.33-8.779s7.459-4.585,14.173-4.481c0,0,4.546-4.407,19.964-2.6
		c0,0,19.076-3.062,25.399-6.545c0,0,11.047-4.977,16.803-0.858c5.757,4.119,5.151-0.144,8.387,7.742c0,0,9.131,3.052,8.992,12.005
		c0,0,8.387,7.742,6.506,13.533c-1.881,5.791,0.288,10.302-2.625,10.481"/>
	<path style="fill:none;stroke:#FFFFFF;stroke-miterlimit:10;" d="M49.437,86.84c0,0-7.498-7.28-8.635-6.179
		c-1.136,1.102-6.431-3.906-6.431-3.906s-2.273,2.203-7.389,0.109c-5.116-2.094-6.362-8.382-10.233-4.189s-2.342,6.68-2.342,6.68
		c-0.496,3.126,3.414,10.799,3.414,10.799"/>
	<path style="fill:none;stroke:#FFFFFF;stroke-miterlimit:10;" d="M127.404,54.024l-7.603-0.566c0,0-2.417-2.948-3.092-2.734
		c-0.675,0.213-3.553-1.846-10.089,0.963c-6.536,2.809-30.406,11.84-30.406,11.84s-9.201,1.424-11.508,5.866
		c-2.308,4.441-5.93,7.072-7.742,8.387c-1.811,1.315-0.318,6.039-0.318,6.039"/>
	<path style="fill:none;stroke:#FFFFFF;stroke-miterlimit:10;" d="M63.923,205.11c0,0-8.548,3.829-11,3.12
		c-2.451-0.71-7.389,0.109-11.121-4.65s-7.925-8.63-7.89-10.868s-2.521,3.767-0.993,6.253s5.012,8.809,7.002,10.407l5.535,6.078
		c0.871,0.957,1.894,1.76,3.03,2.379c3.352,1.824,10.506,5.557,12.044,5.071"/>
	<path style="fill:none;stroke:#FFFFFF;stroke-miterlimit:10;" d="M51.392,90.676c0,0-0.035,2.238,1.315,1.811
		c1.35-0.427,1.742,3.161,1.742,3.161l-0.07,4.476c0,0,1.241-7.816,5.682-5.508c1.488,0.773,2.278,1.183,2.654,1.337
		c0.748,0.305-0.132-0.404-0.416-1.302c0,0-5.116-2.094-4.868-3.657s0.993-6.253-0.571-6.501c0,0,0.144,5.151-1.206,5.578
		C54.305,90.498,54.732,91.848,51.392,90.676z"/>
	<path style="fill:none;stroke:#FFFFFF;stroke-miterlimit:10;" d="M58.359,103.321c0,0,5.186-2.382,5.434-3.945"/>
	<path style="fill:none;stroke:#FFFFFF;stroke-miterlimit:10;" d="M74.17,108.716c0,0-3.196,3.98-1.881,5.791
		c1.315,1.811,5.116,2.094,7.389-0.109"/>
	<path style="fill:none;stroke:#FFFFFF;stroke-miterlimit:10;" d="M36.165,235.057c0,0-5.617-3.677-5.793-4.236
		s-1.705-3.045,7.069-5.819c0,0,6.605-7.285,8.843-7.25c2.238,0.035-3.231,6.218-5.255,6.858c0,0-2.769,5.33-9.27,5.9"/>
	<path style="fill:none;stroke:#FFFFFF;stroke-miterlimit:10;" d="M78.793,229.003c0,0-2.094,5.116-3.871,4.193
		c-1.777-0.923-6.466-1.668-6.893-3.017c-0.427-1.35-0.179-2.913,2.308-4.441c0,0,2.521-3.767,4.724-1.494"/>
	<path style="fill:none;stroke:#FFFFFF;stroke-miterlimit:10;" d="M12.843,79.108c0,0-4.049,1.28-4.511,2.169
		c-0.462,0.888,0.854,2.7,1.955,3.836s1.742,3.161,1.742,3.161s0.392,3.588,2.203,2.273s2.273-2.203,2.273-2.203"/>
	<line style="fill:none;stroke:#FFFFFF;stroke-miterlimit:10;" x1="12.029" y1="88.274" x2="15.011" y2="83.619"/>
	<path style="fill:none;stroke:#FFFFFF;stroke-miterlimit:10;" d="M135.339,90.861c0,0,6.322-3.484,4.794-5.97
		s-4.868-3.657-7.995-4.154c-3.126-0.496-4.69-0.744-3.553-1.846c0,0-2.873,7.877-0.352,8.278"/>
	<path style="fill:none;stroke:#FFFFFF;stroke-miterlimit:10;" d="M138.242,62.475l-4.049,1.28l-2.203-2.273
		c0,0-3.518-4.084-5.97-4.794c0,0-3.126-0.496-3.553-1.846"/>
	<path style="fill:none;stroke:#FFFFFF;stroke-miterlimit:10;" d="M33.912,192.712c0,0,3.836-1.955,6.253,0.993
		s11.905,11.826,22.917,9.087"/>
	<path style="fill:none;stroke:#FFFFFF;stroke-miterlimit:10;" d="M48.313,231.216c0,0,7.851-0.997,6.322-3.484
		s-1.528-2.486-1.528-2.486"/>
	<path style="fill:none;stroke:#FFFFFF;stroke-miterlimit:10;" d="M41.287,150.292c0,0,5.583,15.31,8.034,16.019"/>
	<path style="fill:none;stroke:#FFFFFF;stroke-miterlimit:10;" d="M102.783,154.605c0,0,25.522,43.155,34.226,44.857"/>
	<path style="fill:none;stroke:#FFFFFF;stroke-miterlimit:10;" d="M58.101,76.677c0,0,0.07-4.476-3.449-8.56
		c0,0-11.657-13.389-12.724-16.764c-1.067-3.375-14.288-34.685-16.709-34.063"/>
	<path style="fill:none;stroke:#FFFFFF;stroke-miterlimit:10;" d="M109.554,6.959c0,0,0.858,16.803,4.446,16.411
		s6.149,7.707,6.149,7.707s-2.66,12.719,0.005,14.104c2.665,1.385,0.322,8.064,0.322,8.064"/>
	<path style="fill:none;stroke:#FFFFFF;stroke-miterlimit:10;" d="M153.863,111.885c0,0,1.802-3.694,2.089,6.608
		c0,0,1.067,3.375,2.843,4.298"/>
	<path style="fill:none;stroke:#FFFFFF;stroke-miterlimit:10;" d="M161.124,130.154c0,0,1.443,9.262,6.738,14.269
		s4.977,11.047,7.856,13.106c2.878,2.059,4.551,9.697,4.551,9.697s2.595,5.861-3.762,11.583"/>
</g>
</svg>
