<?xml version="1.0" encoding="iso-8859-1"?>
<!-- Generator: Adobe Illustrator 22.1.0, SVG Export Plug-In . SVG Version: 6.00 Build 0)  -->
<svg version="1.1" id="camera" xmlns="http://www.w3.org/2000/svg" xmlns:xlink="http://www.w3.org/1999/xlink" x="0px" y="0px"
	 viewBox="0 0 320 216" style="enable-background:new 0 0 320 216;" xml:space="preserve">
<g id="body">
	<path style="fill:none;stroke:#F9F9F9;stroke-miterlimit:10;" d="M71.639,211.11"/>
	<path style="fill:none;stroke:#F9F9F9;stroke-width:10.9418;stroke-miterlimit:10;" d="M71.639,211.11"/>
	<path style="fill:none;stroke:#F9F9F9;stroke-miterlimit:10;" d="M91.58,133.341c0,32.289-11.988,54.837-31.905,54.837
		s-38.386-25.743-38.386-58.031s15.478-58.621,35.395-58.621S91.58,101.053,91.58,133.341z"/>
	<path style="fill:none;stroke:#F9F9F9;stroke-miterlimit:10;" d="M95.568,135.336c0,34.808-18.411,59.822-39.881,59.822
		s-42.872-29.002-42.872-63.81c0-17.881,3.947-34.23,11.164-45.902c6.832-11.049,16.596-17.908,28.717-17.908
		C77.622,67.538,95.568,100.528,95.568,135.336z"/>
	<path style="fill:none;stroke:#F9F9F9;stroke-miterlimit:10;" d="M80.812,84.308c-0.997-0.997,0.602-5.731-0.199-6.8
		c-5.982-7.976-18.944-13.958-29.171-13.805c-11.013,0.165-20.39,6.79-26.082,15.503c-0.43,0.658-1.596,4.385-0.581,4.385"/>
	<path style="fill:none;stroke:#F9F9F9;stroke-miterlimit:10;" d="M84.601,176.962l-1.849,7.643
		c-0.097,0.386-0.229,0.765-0.435,1.106c-3.564,5.905-17.953,13.283-27.884,13.135c-10.606-0.159-22.081-9.221-27.999-17.672
		c-0.439-0.627-0.658-1.381-0.658-2.147v-3.112"/>
	<path style="fill:none;stroke:#F9F9F9;stroke-miterlimit:10;" d="M70.144,191.169c-35.893,8.973-60.32-28.757-54.338-85.587"/>
	<path style="fill:none;stroke:#F9F9F9;stroke-width:0.5;stroke-miterlimit:10;" d="M76.113,166.048
		c-0.705,0.129-1.419,0.196-2.141,0.196c-11.555,0-24.766-15.34-24.766-34.073s7.317-37.345,22.33-38.195
		c1.274-0.072,2.553,0.088,3.822,0.456"/>
	<path style="fill:none;stroke:#F9F9F9;stroke-miterlimit:10;" d="M76.624,51.585c29.017,4.836,46.86,41.686,46.86,83.75
		c0,34.839-11.439,62.216-30.908,72.783"/>
	<path style="fill:none;stroke:#F9F9F9;stroke-miterlimit:10;" d="M114.512,52.582c29.017,4.836,47.857,37.698,47.857,79.762
		c0,34.839-16.424,61.219-35.893,71.786"/>
	<path style="fill:none;stroke:#F9F9F9;stroke-miterlimit:10;" d="M175.33,195.157c19.469-10.567,30.908-28.971,30.908-63.81
		c0-42.065-13.958-69.792-41.875-77.768"/>
	<line style="fill:none;stroke:#F9F9F9;stroke-miterlimit:10;" x1="51.699" y1="50.588" x2="167.354" y2="53.579"/>
	<polyline style="fill:none;stroke:#F9F9F9;stroke-miterlimit:10;" points="72.636,210.113 159.378,200.142 175.33,195.157 	"/>
	<path style="fill:none;stroke:#F9F9F9;stroke-miterlimit:10;" d="M141.431,202.136l135.596,12.961c0,0,7.976,1.994,8.973-7.976
		c0.997-9.97-4.985-161.519-4.985-161.519l-57.828,2.991v11.964L209.229,36.63l-66.801,4.985l19.941-29.911l51.845-4.985
		l25.586,1.706c2.665,0.178,5.019,1.8,6.134,4.227L260.078,46.6"/>
	<line style="fill:none;stroke:#F9F9F9;stroke-miterlimit:10;" x1="142.428" y1="53.081" x2="142.428" y2="42.113"/>
	<polyline style="fill:none;stroke:#F9F9F9;stroke-miterlimit:10;" points="209.229,36.63 214.214,6.719 212.22,3.728 
		211.223,0.737 	"/>
	<path style="fill:none;stroke:#F8F8F8;stroke-miterlimit:10;" d="M178.321,9.71l1.994-2.991c0,0,0-0.997,4.985-1.994
		c4.596-0.919,22.748-3.533,25.557-3.936c0.245-0.035,0.49-0.043,0.737-0.025l24.979,1.85c0.991,0.073,1.892,0.599,2.443,1.426
		l0.842,1.263c0.182,0.273,0.279,0.593,0.279,0.921v2.488"/>
	<path style="fill:none;stroke:#F9F9F9;stroke-miterlimit:10;" d="M223.686,61.555H212.22c0,0-20.938-15.952-47.857-7.976"/>
	<path style="fill:none;stroke:#F9F9F9;stroke-miterlimit:10;" d="M280.368,215.261l32.553-3.154c0,0,6.979-5.982,5.982-14.955
		c-0.997-8.973-2.991-124.629-2.991-124.629s0-7.976-6.979-8.973c0,0,9.97-6.979-0.997-11.964
		c-10.967-4.985-11.964-0.997-11.964-0.997s-3.44,11.179,3.257,14.37c0.916,0.436,1.964,0.526,2.949,0.28l6.755-1.689"/>
	<path style="fill:none;stroke:#F9F9F9;stroke-miterlimit:10;" d="M281.015,45.603l21.366,0.89c1.432,0.06,2.562,1.238,2.562,2.671
		v1.186"/>
</g>
<g id="ring">
	<path style="fill:none;stroke:#F9F9F9;stroke-width:3;stroke-miterlimit:10;" d="M89.586,130.296
		c0,23.001-11.735,43.924-25.923,43.924s-30.409-18.836-30.409-41.837s8.985-45.855,27.418-46.898
		C74.837,84.682,89.586,107.294,89.586,130.296z"/>
	<g>
		<path style="fill:#F9F9F9;" d="M108.538,132.344c-0.083,8.751-0.967,17.508-2.799,26.103c-1.826,8.588-4.537,17.047-8.514,25.017
			c-3.965,7.941-9.211,15.496-16.36,21.391c-1.762,1.489-3.706,2.791-5.696,4.013c-2.051,1.138-4.149,2.223-6.401,2.988
			c-4.456,1.647-9.279,2.313-14.042,1.977c-4.792-0.292-9.37-1.773-13.508-3.812c-4.155-2.05-7.866-4.749-11.177-7.776
			c-6.639-6.07-11.759-13.387-15.862-21.101c-8.179-15.483-12.226-32.845-12.439-50.197c-0.131-8.65,0.544-17.303,2.135-25.843
			c1.595-8.53,4.168-16.938,7.991-24.864c3.85-7.874,8.882-15.459,15.967-21.282c6.93-5.876,16.319-9.608,25.824-9.07
			c4.763,0.176,9.382,1.489,13.619,3.376c4.253,1.895,8.098,4.474,11.564,7.398c6.936,5.876,12.407,13.107,16.723,20.847
			c4.315,7.759,7.486,16.081,9.614,24.641C107.344,114.707,108.402,123.519,108.538,132.344z M98.551,132.344
			c0.054-8.057-0.728-16.144-2.536-24.006c-1.766-7.866-4.496-15.525-8.235-22.614c-3.727-7.076-8.457-13.649-14.298-18.853
			c-2.913-2.595-6.101-4.843-9.529-6.474c-3.418-1.624-7.047-2.765-10.736-2.981c-7.435-0.556-14.939,2.131-20.964,7.008
			c-6.1,4.82-10.905,11.476-14.472,18.71c-3.567,7.264-6.052,15.127-7.612,23.178c-1.55,8.053-2.287,16.314-2.175,24.548
			c0.305,16.384,4.284,32.804,12.006,47.159c3.903,7.124,8.813,13.71,14.759,18.938c2.967,2.609,6.21,4.848,9.67,6.462
			c3.45,1.605,7.097,2.703,10.759,2.822c3.662,0.157,7.373-0.438,10.804-1.82c1.739-0.632,3.379-1.551,4.996-2.493
			c1.574-1.036,3.127-2.12,4.556-3.4c5.804-5.019,10.272-11.746,13.667-18.952c3.413-7.229,5.737-15.036,7.241-22.99
			C97.989,148.623,98.561,140.475,98.551,132.344z"/>
	</g>
</g>
<g id="zeiss">
	<path style="fill:none;stroke:#083DFF;stroke-miterlimit:10;" d="M174.333,113.401l14.955-0.997c0,0,1.994,6.979,0.997,20.938
		c0,0-8.973-3.988-14.955,1.994C175.33,135.336,177.324,122.374,174.333,113.401z"/>
</g>
<g id="redline">
	<g>
		<path style="fill:#A8201A;" d="M167.283,53.084c8.556-2.288,18.114-1.342,26.576,2.183c8.506,3.511,15.977,9.296,22.054,16.14
			c3.053,3.425,5.769,7.135,8.196,11.018c2.388,3.906,4.513,7.976,6.276,12.202c3.54,8.442,5.848,17.414,6.762,26.558
			c0.969,9.054,0.511,18.691-2.019,27.667c-2.432,9.009-6.659,17.48-12.322,24.807c-5.647,7.323-12.845,13.501-21.1,17.583
			c-8.208,4.089-17.63,5.905-26.394,4.416l0.033-0.999c8.615-0.89,16.519-4.067,23.235-8.769
			c6.736-4.685,12.335-10.785,16.749-17.567c4.411-6.795,7.608-14.325,9.483-22.119c0.919-3.902,1.521-7.869,1.765-11.852
			c0.214-3.947,0.121-8.069-0.25-12.123c-1.493-16.222-7.193-32.283-16.947-45.463c-4.897-6.547-10.869-12.353-17.971-16.489
			c-3.546-2.068-7.369-3.682-11.399-4.772c-4.034-1.064-8.274-1.537-12.588-1.429L167.283,53.084z"/>
	</g>
</g>
</svg>
