<?xml version="1.0" encoding="iso-8859-1"?>
<!-- Generator: Adobe Illustrator 22.1.0, SVG Export Plug-In . SVG Version: 6.00 Build 0)  -->
<svg version="1.1" id="&#x30EC;&#x30A4;&#x30E4;&#x30FC;_1"
	 xmlns="http://www.w3.org/2000/svg" xmlns:xlink="http://www.w3.org/1999/xlink" x="0px" y="0px" viewBox="0 0 95 95"
	 style="enable-background:new 0 0 95 95;" xml:space="preserve">
<g id="layer101">
	<path style="fill:none;stroke:#FFFFFF;stroke-miterlimit:10;" d="M39.845,91.666c-0.072-0.141-0.941-0.316-1.919-0.457
		s-2.715-0.527-3.91-0.949c-1.158-0.387-2.172-0.703-2.281-0.738c-0.507-0.07-1.484-0.457-3.548-1.371
		c-1.231-0.562-2.317-1.019-2.425-1.019c-0.072,0-0.869-0.457-1.738-1.055c-0.905-0.562-1.774-1.055-1.991-1.055
		c-0.217,0-0.434-0.141-0.507-0.281c-0.036-0.141-1.158-1.055-2.462-2.004c-4.525-3.375-9.702-9.211-11.837-13.359
		c-0.507-0.949-1.086-1.969-1.303-2.25c-0.217-0.246-0.434-0.633-0.471-0.879c-0.072-0.211-0.579-1.582-1.122-3.023
		c-0.579-1.441-1.267-3.41-1.52-4.394c-0.253-0.949-0.543-2.004-0.652-2.285c-0.941-2.672-0.833-14.519,0.181-19.194
		c2.244-10.195,8.073-19.23,16.543-25.628c10.932-8.261,24.326-11.32,38.191-8.754c13.575,2.496,25.847,11.636,32.182,23.94
		C92.48,33.169,94,39.637,94,47.02c0,12.374-4.416,23.132-12.923,31.499c-4.163,4.043-8.073,6.855-12.561,8.964
		c-7.53,3.551-13.249,4.676-22.589,4.5C42.668,91.947,39.917,91.772,39.845,91.666z M52.008,61.292V46.703h4.199h4.199l-0.109-0.949
		c-0.072-0.879,0.109-2.812,0.579-6.504l0.181-1.336h-4.525h-4.525v-4.008c0-5.414,0.036-5.449,5.068-5.554l3.801-0.105v-4.57v-4.57
		h-5.973c-3.294,0-6.299,0.141-6.697,0.316c-0.398,0.176-1.014,0.387-1.376,0.422c-1.086,0.211-3.403,1.793-4.199,2.883
		c-1.448,1.969-1.629,2.988-1.846,9.035l-0.181,5.976l-3.149,0.105L34.27,37.95v4.535v4.57h3.258h3.258v14.413v14.413h5.611h5.611
		V61.292z"/>
</g>
</svg>
