<?xml version="1.0" encoding="iso-8859-1"?>
<!-- Generator: Adobe Illustrator 22.1.0, SVG Export Plug-In . SVG Version: 6.00 Build 0)  -->
<svg version="1.1" id="&#x30EC;&#x30A4;&#x30E4;&#x30FC;_1"
	 xmlns="http://www.w3.org/2000/svg" xmlns:xlink="http://www.w3.org/1999/xlink" x="0px" y="0px" viewBox="0 0 95 95"
	 style="enable-background:new 0 0 95 95;" xml:space="preserve">
<g id="layer101_1_">
	<path style="fill:none;stroke:#FFFFFF;stroke-miterlimit:10;" d="M40.066,92.346c-3.554-0.525-6.824-1.331-9.347-2.347
		c-1.031-0.385-1.99-0.736-2.203-0.771c-0.178-0.035-1.457-0.666-2.843-1.401c-8.672-4.764-16.028-12.4-19.867-20.597
		c-3.234-6.866-4.3-12.471-4.016-20.913c0.284-7.566,1.208-11.56,4.123-17.76c2.808-5.92,8.316-12.471,13.932-16.604
		c9.063-6.656,21.146-9.773,32.661-8.407C62.812,4.772,71.199,8.73,78.698,15.911c9.169,8.792,13.612,19.231,13.612,32.087
		c0,12.716-3.909,22.314-12.723,31.281c-4.087,4.169-7.179,6.41-12.012,8.827C59.329,92.205,49.449,93.712,40.066,92.346z
		 M41.132,77.143c0.853-0.595,0.888-0.806,0.96-4.974c0.107-5.044,0.355-7.216,0.888-7.531c0.178-0.14,0.498,0,0.675,0.245
		c0.391,0.596,0.391,9.318,0,11.665l-0.284,1.681l1.244-0.175c2.31-0.385,2.559-0.911,2.559-5.325c0-5.36,0.32-8.232,0.924-8.232
		c0.391,0,0.498,1.086,0.498,5.395c0,2.978,0.142,5.815,0.355,6.305c0.32,0.876,1.99,1.962,2.95,1.962
		c0.426,0,0.462-0.315,0.178-1.646c-0.391-1.892-0.462-10.159-0.107-11.28c0.178-0.595,1.066-1.051,1.279-0.631
		c0.036,0.035,0.178,2.662,0.284,5.815c0.213,5.605,0.249,5.745,1.102,6.375c0.498,0.315,1.422,0.736,2.097,0.841
		c1.208,0.245,1.208,0.245,0.604-0.56c-0.462-0.701-0.569-1.892-0.569-7.426c0-6.305-0.036-6.656-0.888-8.302
		c-0.498-0.946-0.888-1.857-0.888-2.032s1.066-0.596,2.417-0.911c3.838-0.981,6.575-2.487,8.992-5.044
		c2.95-3.118,3.056-3.398,3.376-9.388c0.213-3.433,0.142-4.204-0.569-6.235c-0.426-1.261-0.924-2.312-1.102-2.312
		c-0.213,0-0.284-0.14-0.178-0.315c0.107-0.14-0.249-0.981-0.817-1.822c-0.853-1.366-1.031-2.032-1.208-5.044
		c-0.107-1.927-0.355-3.958-0.569-4.519c-0.391-0.946-0.498-0.981-1.99-0.806c-1.706,0.245-5.153,1.576-6.184,2.382
		c-0.924,0.736-1.244,0.736-5.935,0.315c-3.234-0.315-5.331-0.315-8.387,0L38.787,26l-3.021-1.436
		c-3.59-1.681-6.433-2.172-6.895-1.191c-0.178,0.385-0.32,2.557-0.355,4.869c-0.036,4.098-0.071,4.239-1.137,5.78
		c-1.741,2.522-2.31,4.624-2.275,8.582c0,1.927,0.178,4.063,0.391,4.729c0.249,0.876,0.249,1.261-0.036,1.366
		c-0.213,0.07-0.036,0.35,0.355,0.631c0.426,0.28,0.746,0.701,0.746,0.946c0,0.245,0.888,1.401,1.955,2.592
		c2.381,2.557,5.615,4.274,9.667,5.184c1.528,0.315,2.879,0.666,3.056,0.736c0.142,0.07-0.213,0.806-0.782,1.646
		c-0.569,0.806-1.279,2.242-1.564,3.223c-0.569,1.962-1.493,2.452-2.026,1.051c-0.178-0.49-0.533-0.911-0.782-0.911
		c-0.355,0-0.32,0.105,0.036,0.315c0.604,0.385,0.249,1.436-0.498,1.436s-1.102-1.051-0.498-1.436
		c0.391-0.245,0.32-0.315-0.284-0.315c-0.569,0-0.711,0.175-0.569,0.701c0.142,0.525,0,0.701-0.569,0.701
		c-0.604,0-0.782-0.175-0.675-0.771c0.071-0.385-0.071-0.806-0.284-0.876c-0.249-0.07-0.391,0.14-0.355,0.49
		c0.036,0.841-1.351,0.841-1.493,0.035c-0.071-0.42,0.107-0.631,0.533-0.631c0.533,0,0.533-0.07,0.142-0.315
		c-0.355-0.245-0.675-0.175-0.924,0.21c-0.462,0.631-1.244,0.35-1.244-0.455c0-0.28-0.142-0.455-0.284-0.42
		c-0.498,0.175-2.63-2.137-2.452-2.627c0.107-0.245-0.142-0.42-0.604-0.42c-0.64,0-0.462,0.42,1.599,3.503
		C30.684,67.404,31.643,68,35.944,68H39v4.414c0,2.522-0.178,4.694-0.391,5.114c-0.355,0.666-0.32,0.701,0.604,0.49
		C39.782,77.878,40.635,77.493,41.132,77.143z"/>
</g>
</svg>
