<?xml version="1.0" encoding="iso-8859-1"?>
<!-- Generator: Adobe Illustrator 22.1.0, SVG Export Plug-In . SVG Version: 6.00 Build 0)  -->
<svg version="1.1" id="&#x30EC;&#x30A4;&#x30E4;&#x30FC;_1"
	 xmlns="http://www.w3.org/2000/svg" xmlns:xlink="http://www.w3.org/1999/xlink" x="0px" y="0px" viewBox="0 0 95 95"
	 style="enable-background:new 0 0 95 95;" xml:space="preserve">
<g id="layer101_2_">
	<path style="fill:none;stroke:#FFFFFF;stroke-miterlimit:10;" d="M36.337,91.561C20.944,87.344,9.557,76.449,4.286,60.986
		c-2.038-5.904-1.898-20.383,0.211-27.06C8.714,20.501,19.116,9.888,32.963,4.898C37.531,3.281,39.148,3,47.231,3
		c7.521,0,9.981,0.281,14.057,1.546c11.246,3.585,21.437,12.16,26.357,22.281c4.147,8.434,5.131,13.214,4.779,22.913
		c-0.281,6.537-0.703,9.067-2.319,13.354c-4.779,13.003-14.83,22.984-27.763,27.482C56.368,92.615,42.241,93.177,36.337,91.561z
		 M34.931,53.255V37.792h-4.217h-4.217v15.463v15.463h4.217h4.217V53.255z M51.097,58.948c0-8.786,0.141-9.91,1.476-11.597
		c1.898-2.39,6.396-2.601,8.856-0.281c1.546,1.476,1.617,1.968,1.617,11.597v10.051h4.639h4.639l-0.281-12.23
		c-0.211-13.425-0.492-14.198-5.061-17.572c-3.163-2.39-8.645-2.038-12.652,0.773l-3.233,2.319V39.9c0-2.109,0-2.109-4.217-2.109
		h-4.217v15.463v15.463h4.217h4.217V58.948z M34.228,31.185c0.843-0.984,1.617-2.601,1.617-3.585c0-0.984-0.773-2.601-1.617-3.585
		c-3.303-3.444-8.434-1.265-8.434,3.585C25.794,32.38,30.995,34.559,34.228,31.185z"/>
</g>
</svg>
