<?xml version="1.0" encoding="iso-8859-1"?>
<!-- Generator: Adobe Illustrator 22.1.0, SVG Export Plug-In . SVG Version: 6.00 Build 0)  -->
<svg version="1.1" id="neon_x5F_sign_x5F_sxy" xmlns="http://www.w3.org/2000/svg" xmlns:xlink="http://www.w3.org/1999/xlink"
	 x="0px" y="0px" viewBox="0 0 1000 1000" style="enable-background:new 0 0 1000 1000;" xml:space="preserve">
	 <defs>
       <filter id="filter1" x="0" y="0">
           <feOffset result="offOut" in="SourceAlpha" dx="-5" dy="-5" />
           <feGaussianBlur result="blurOut" in="offOut" stdDeviation="3" />
           <feBlend in="SourceGraphic" in2="blurOut" mode="normal" />
    </filter>
</defs>
<g id="bar">
	<path style="fill:#0037FF;" d="M997,427v150H652.914c-0.345-0.483-0.704-0.974-1.081-1.479c-4.942-6.711-7.1-9.434-10.945-9.434
		c-5.041,0-8.897,5.163-10.575,10.913h-4.236c-9.046-8.077-18.287-12.688-25.483-12.688c-0.787,0-1.558,0.056-2.286,0.165
		c-4.289,0.639-7.143,3.531-11.535,9.346c-0.561,0.726-1.538,1.912-2.648,3.177h-54.8c-1.601-0.984-3.796-1.436-5.313-1.436h-2.401
		h-7.101h-2.439h-7.497l1.507,1.436H3V427h387.507c3.032,1.789,11.491,6.443,14.361,6.718c2.212,1.517,11.618,4.006,11.741,4.036
		c8.772,2.105,27.071,3.207,40.613,3.207c6.248,0,14.541-0.23,18.634-1.321c0.381-0.088,2.116-0.374,3.958-0.559
		c2.771-0.315,18.098-2.774,32.775-5.395c6.051-1.052,19.654-3.874,24.701-5.03c1.655-0.399,4.187-0.994,7.033-1.657h33.872
		c0.38,0.504,0.799,0.933,1.247,1.28c-0.067,0.136-0.141,0.282-0.222,0.441c-2.323,4.491-2.175,11.169,0.367,16.252
		c3.157,6.241,6.877,9.213,12.875,10.262c1.752,0.283,3.21,0.472,4.63,0.472c2.26,0,4.176-0.467,6.904-1.325
		c8.804-2.715,13.38-9.27,13.235-18.958c-0.032-2.202-0.63-5.43-1.371-8.425H997 M1000,424H611.911
		c1.185,3.791,2.279,8.794,2.318,11.469c0.126,8.402-3.538,13.709-11.119,16.047c-2.659,0.836-4.245,1.192-6.02,1.192
		c-1.177,0-2.438-0.157-4.151-0.434c-5.054-0.885-7.961-3.285-10.677-8.655c-2.085-4.17-2.274-9.855-0.379-13.52
		c1.516-2.969,1.579-3.791,0.379-3.791c-0.845,0-1.791-1.026-2.367-2.309h-35.918c-2.992,0.696-5.667,1.325-7.392,1.74
		c-5.243,1.2-18.7,3.98-24.512,4.991c-14.152,2.527-29.819,5.054-32.599,5.37c-1.895,0.189-3.853,0.505-4.359,0.632
		c-3.132,0.846-9.917,1.229-17.894,1.229c-14.067,0-31.85-1.189-39.912-3.124c-3.791-0.948-10.108-3.032-10.677-3.538
		c-0.379-0.316-1.011-0.569-1.516-0.569c-1.366,0-9.575-4.108-13.774-6.731H0v156h513.58l-1.507-1.436h2.653
		c1.97,0,2.98,0.366,4.024,1.436h4.258l-1.397-1.436h2.401c1.327,0,3.159,0.505,4.043,1.2c0.109,0.073,0.232,0.153,0.36,0.236
		h57.054c1.402-1.547,2.854-3.278,3.677-4.342c4.486-5.939,6.633-7.771,9.603-8.213c0.591-0.089,1.206-0.132,1.844-0.132
		c6.636,0,15.666,4.729,24.327,12.688h7.766c1.056-5.921,4.579-10.913,8.202-10.913c2.085,0,3.412,1.264,8.529,8.213
		c0.739,0.99,1.364,1.866,1.932,2.7H1000V424L1000,424z"/>
</g>
<g id="logo" class = "flux">
	
		<text transform="matrix(1 9.800000e-04 -9.800000e-04 1 42.0478 535.0358)" style="fill:none;stroke:#002BFF;stroke-width:5;stroke-miterlimit:10; font-family:'London-Tube'; font-size:120px;">A SAD SEXY IMP</text>
</g>
<g id="circle">
	<g>
		<path style="fill:#DC2521;" d="M894.63,581c-8.309,46.432-24.545,90.685-48.267,131.547
			c-23.405,40.316-53.344,76.077-88.984,106.289c-35.894,30.428-76.34,54.173-120.213,70.577C591.756,906.391,543.924,915,495,915
			s-96.756-8.609-142.166-25.587c-43.873-16.404-84.319-40.149-120.213-70.577c-35.64-30.212-65.579-65.973-88.984-106.289
			C119.915,671.685,103.679,627.432,95.37,581h122.742c7.834,30.325,20.547,59.014,37.794,85.289
			c17.103,26.055,38.204,49.051,62.719,68.349c24.755,19.488,52.306,34.659,81.887,45.093C431.118,790.526,463.245,796,496,796
			s64.882-5.474,95.488-16.269c29.582-10.434,57.133-25.605,81.888-45.093c24.515-19.299,45.616-42.295,62.719-68.349
			c17.247-26.274,29.96-54.964,37.794-85.289H894.63 M895.823,580H773.112C741.537,703.606,629.444,795,496,795
			s-245.537-91.394-277.112-215H94.177C127.767,770.93,294.44,916,495,916S862.233,770.93,895.823,580L895.823,580z"/>
	</g>
	<g>
		<path style="fill:#DC2521;" d="M832.565,283.353c28.566,42.63,48.506,89.578,59.301,139.647H769.892
			c-1.885-6.008-4.003-12.042-6.305-17.962c5.885-2.074,14.599-5.8,19.391-8.636c11.507-6.828,23.974-15.719,28.991-20.672
			c3.982-3.833,11.256-12.16,11.602-14.402c0.097-0.295,0.703-1.555,1.646-3.188c6.446-11.042,9.547-25.082,10.055-45.526
			C835.512,302.083,834.74,293.477,832.565,283.353 M830.381,278.36c3.212,12.974,4.161,22.404,3.891,34.232
			c-0.505,20.343-3.538,34.115-9.918,45.045c-0.948,1.643-1.769,3.285-1.769,3.538c0,1.264-6.254,8.971-11.309,13.836
			c-4.928,4.865-17.31,13.709-28.808,20.532c-4.711,2.788-13.951,6.779-20.19,8.891c2.521,6.413,4.819,12.937,6.879,19.567h123.947
			C881.817,370.884,860.173,321.599,830.381,278.36L830.381,278.36z"/>
	</g>
	<g>
		<path style="fill:#DC2521;" d="M495,103c49.425,0,97.716,8.782,143.532,26.103c44.006,16.637,84.511,40.654,120.405,71.393
			l-0.592,1.052c-1.924,3.463-12.835,19.746-13.921,20.943c-0.706,0.706-1.981,2.221-3.006,3.438l-0.104,0.124
			c-0.952,1.206-4.035,4.668-6.595,7.471l-1.342,1.503c-2.403,2.692-5.128,5.744-6.615,7.339
			c-14.115,15.683-20.943,20.863-31.769,24.099c-3.459,1.059-6.4,1.968-7.336,2.362c-0.885,0.315-4.903,1.676-9.093,3.009
			c-6.795,2.109-7.764,2.336-17.071,2.66c-6.9-4.878-14.121-9.514-21.474-13.788c-0.194-0.662-0.386-1.369-0.564-2.081
			c-1.786-6.483-4.163-13.995-5.522-17.455c-0.21-0.568-0.526-1.408-0.897-2.398c-0.744-1.983-1.713-4.567-2.518-6.769
			c-3.523-9.29-7.419-15.376-14.376-22.461c-6.726-6.79-10.051-8.97-23.717-15.55c-9.154-4.383-27.376-10.866-33.611-11.959
			c-6.492-1.175-17.08-1.878-23.564-1.878c-1.397,0-2.605,0.032-3.604,0.096c-3.162,0.243-8.963,1.043-12.931,1.783
			c-2.902,0.541-6.112,1.121-8.044,1.47l-1.271,0.23c-11.789,1.765-16.148,2.945-35.87,9.709
			c-12.863,4.392-15.168,5.288-22.099,9.304c-3.501,2.02-5.785,3.273-6.088,3.401c0.015-0.006,0.148-0.06,0.333-0.06
			c-1.281,0-17.918,10.43-18.846,11.121c-1.424,1.035-5.92,5.33-10.237,9.778c-4.545,4.682-8.386,7.99-9.11,8.289
			c-0.794,0.298-4.78,0.815-9.231,0.948c-1.557,0.067-3.044,0.1-4.42,0.1c-12.976,0-20.518-2.942-28.819-11.243
			c-3.926-3.926-5.667-6.264-8.097-10.875c-5.275-10.104-7.902-17.561-9.696-27.516c-4.492-24.334-5.605-33.722-5.669-47.832
			c0-1.742,0.044-3.727,0.132-5.908C390.373,113.075,441.951,103,495,103 M495,102c-54.61,0-106.707,10.758-154.291,30.266
			c-0.101,2.338-0.16,4.58-0.16,6.591c0.063,13.899,1.137,23.375,5.686,48.014c1.832,10.171,4.549,17.753,9.792,27.798
			c2.464,4.675,4.296,7.139,8.276,11.119c8.453,8.453,16.133,11.536,29.526,11.536c1.421,0,2.905-0.035,4.463-0.101
			c4.233-0.126,8.529-0.632,9.539-1.011c1.074-0.442,5.307-4.233,9.477-8.529c4.17-4.296,8.718-8.655,10.108-9.666
			c2.464-1.832,17.626-10.929,18.258-10.929c0.126,0,2.97-1.579,6.255-3.475c6.76-3.917,8.971-4.801,21.922-9.224
			c19.711-6.76,23.881-7.897,35.695-9.666c1.39-0.253,5.623-1.011,9.35-1.706c3.727-0.695,9.54-1.516,12.825-1.769
			c0.985-0.063,2.182-0.093,3.527-0.093c6.764,0,17.273,0.755,23.386,1.862c6.128,1.074,24.386,7.581,33.357,11.877
			c13.646,6.57,16.805,8.655,23.438,15.352c6.886,7.013,10.677,12.951,14.151,22.112c1.2,3.285,2.78,7.455,3.412,9.161
			c1.39,3.538,3.791,11.182,5.496,17.374c0.22,0.88,0.458,1.737,0.683,2.481c7.564,4.383,14.911,9.098,22.016,14.134
			c9.802-0.337,10.767-0.574,17.67-2.716c4.17-1.327,8.276-2.717,9.161-3.032c0.885-0.379,4.17-1.39,7.266-2.338
			c10.992-3.285,18.005-8.592,32.22-24.386c1.769-1.895,5.307-5.875,7.96-8.845c2.653-2.906,5.686-6.318,6.634-7.518
			c1.011-1.2,2.337-2.78,3.032-3.475c1.264-1.39,12.193-17.753,14.088-21.164c0.348-0.618,0.674-1.198,0.992-1.761
			C688.977,139.023,596.313,102,495,102L495,102z"/>
	</g>
	<g>
		<path style="fill:#DC2521;" d="M254.496,181.876c-3.969,8.791-8.703,20.238-10.864,27.055c-4.692,14.711-6.49,26.953-6.87,46.78
			c-0.376,17.749,0.111,23.273,3.064,34.765c4.533,17.551,12.384,31.594,26.195,46.815c-19.466,26.028-34.235,54.854-43.913,85.708
			H98.134c10.549-48.92,29.89-94.983,57.495-136.923C182.257,245.621,215.505,210.581,254.496,181.876 M257.001,178.812
			C176.586,236.877,118.231,323.593,96.897,424h125.947c9.832-31.63,25.013-60.902,44.474-86.77
			c-14.012-15.296-22.004-29.503-26.524-47.003c-2.906-11.309-3.412-16.615-3.033-34.494c0.379-19.774,2.148-31.841,6.823-46.498
			C246.907,201.906,252.579,188.288,257.001,178.812L257.001,178.812z"/>
	</g>
</g>
<g id="body">
	<g id="tail">
		<path style="fill:#BA61F3;" d="M601.53,576.732c-2.654,0.603-3.99,1.336-5.919,3.268h16.257c-1.414-1.071-3.206-2.261-4.337-2.826
			C605.258,575.973,604.752,575.973,601.53,576.732z"/>
		<path style="fill:#BA61F3;" d="M630.086,593.221c2.148,2.906,5.812,4.801,7.329,3.854c1.263-0.821,1.327-3.601,0.189-9.666
			c-0.661-3.361-0.745-4.993-0.337-7.408h-4.58c-0.196,1.099-0.317,2.227-0.327,3.365l-0.063,4.107l-3.854-4.043
			c-1.162-1.204-2.339-2.341-3.522-3.428h-7.036C622.145,583.479,625.683,587.368,630.086,593.221z"/>
		<path style="fill:#BA61F3;" d="M528.372,584.376c1.39,0.632,3.791,2.211,5.497,3.411c4.043,2.906,12.825,6.949,17.752,8.15
			c2.211,0.569,5.18,1.327,6.507,1.643c2.59,0.632,12.635-0.19,16.552-1.39c1.991-0.622,12.497-11.047,16.314-16.19h-5.523
			c-0.428,0.472-0.852,0.93-1.251,1.343c-1.643,1.769-4.043,4.549-5.37,6.191c-2.78,3.475-5.812,5.307-9.287,5.496
			c-1.39,0.126-3.664,0.379-5.054,0.632c-5.433,1.011-19.269-3.159-26.85-8.087c-1.896-1.2-4.486-2.78-5.686-3.411
			c-1.062-0.615-2.567-1.525-3.556-2.165h-5.408l0.815,0.838C524.961,582.102,527.045,583.681,528.372,584.376z"/>
		<path style="fill:#BA61F3;" d="M649.165,585.134c4.865,9.413,5.623,19.964,2.211,30.261c-2.59,7.708-5.307,11.119-9.287,11.624
			c-2.653,0.316-3.854,0.063-9.413-2.401c-1.39-0.632-4.043-1.706-5.875-2.401c-6.002-2.401-9.224-4.359-12.825-7.897
			c-3.096-2.906-3.664-3.854-3.664-5.686c0-3.222,3.791-6.065,11.877-8.845c2.211-0.821,2.969-0.821,3.98-0.19
			c1.074,0.632,1.39,0.569,2.211-0.442c1.2-1.643,1.137-2.148-0.506-5.244c-1.453-2.653-10.235-10.93-11.624-10.93
			c-0.442,0-1.958-1.011-3.475-2.274c-0.271-0.224-0.582-0.466-0.907-0.712h-16.257c-0.092,0.092-0.178,0.172-0.272,0.269
			c-1.453,1.453-3.222,3.791-3.917,5.054c-1.769,3.475-9.161,11.245-13.267,14.025c-4.865,3.285-9.224,4.865-10.993,3.98
			c-0.758-0.379-3.348-0.821-5.812-0.948c-3.159-0.126-5.433-0.695-7.96-1.895c-1.958-0.948-3.854-1.706-4.233-1.706
			c-0.379,0-2.527-0.821-4.675-1.832c-2.211-0.948-5.117-2.148-6.507-2.59c-1.39-0.442-4.043-1.958-5.875-3.411
			c-8.908-6.949-11.94-9.476-13.267-10.866c-0.027-0.029-0.055-0.052-0.082-0.08h-5.17l3.863,3.681
			c4.865,4.612,7.581,6.886,14.468,12.067c1.263,1.011,3.727,2.338,5.433,2.969c1.769,0.695,7.012,2.78,11.688,4.738
			c6.76,2.843,9.224,3.538,11.94,3.538c1.895,0,4.359,0.316,5.496,0.758c3.348,1.2,9.413-0.569,14.594-4.296
			c5.054-3.601,11.814-10.424,15.162-15.352c3.285-4.865,4.169-5.749,6.254-6.318c1.769-0.442,4.422,0.442,6.381,2.274
			c0.505,0.442,2.211,1.832,3.854,3.159c1.643,1.327,4.043,3.348,5.307,4.549c1.327,1.2,2.969,2.527,3.664,3.032
			c1.769,1.264,1.579,1.706-1.074,2.527c-6.065,1.769-9.477,3.475-12.004,6.002c-4.233,4.296-3.538,8.466,2.401,14.278
			c4.296,4.296,7.202,5.875,17.942,9.982c4.865,1.832,9.792,3.412,10.993,3.412c4.106,0,7.202-1.39,10.551-4.928
			c2.843-2.906,3.538-4.233,5.37-9.792c1.958-5.875,2.148-7.076,2.085-13.709c-0.063-6.444-0.316-7.96-2.085-13.267
			c-1.25-3.798-2.358-6.148-4.511-9.304h-5.612C647.236,582.032,648.601,584.031,649.165,585.134z"/>
		<path style="fill:#BA61F3;" d="M640.889,569.087c-3.623,0-7.146,4.992-8.202,10.913h4.58c0.06-0.354,0.13-0.724,0.21-1.12
			c0.758-3.917,1.516-5.37,2.78-5.37c0.425,0,3.119,3.287,5.481,6.49h5.612c-0.569-0.833-1.193-1.71-1.932-2.7
			C644.301,570.351,642.974,569.087,640.889,569.087z"/>
		<path style="fill:#BA61F3;" d="M591.169,579.764c1.137-1.516,3.159-3.98,4.485-5.433c2.274-2.464,2.78-2.717,5.433-2.717
			c3.791,0,8.718,2.211,14.467,6.57c0.806,0.597,1.578,1.201,2.33,1.815h7.036c-9.493-8.723-19.43-13.567-26.171-12.555
			c-2.969,0.442-5.117,2.274-9.603,8.213c-0.823,1.065-2.275,2.795-3.677,4.342h5.523
			C591.052,579.921,591.114,579.84,591.169,579.764z"/>
	</g>
	<g id="head">
		<path style="fill:#BA61F3;" d="M380.477,402.618c-2.022-5.117-2.148-15.668-0.253-21.606c2.274-7.013,6.57-12.572,15.541-19.964
			c2.148-1.769,1.769-2.969-0.884-2.969c-2.338,0-4.17-2.338-7.076-9.161c-3.222-7.455-4.106-10.55-5.307-18.953
			c-1.579-11.561-1.011-25.207,1.58-36.137c2.274-9.729,5.054-18.321,7.328-23.122c0.885-1.895,1.579-3.601,1.579-3.791
			c0-0.253,0.948-1.895,2.148-3.727c1.137-1.832,3.601-6.065,5.433-9.35c4.991-9.097,8.971-13.962,22.427-27.482
			c6.949-6.949,11.372-9.792,34.747-22.428c3.285-1.769,13.141-5.37,28.429-10.361c6.191-2.022,12.446-3.475,20.848-4.801
			c6.634-1.137,13.836-2.401,16.047-2.906c9.666-2.211,30.893-0.505,43.971,3.538c9.855,3.032,10.108,3.159,18.953,7.076
			c17.057,7.644,22.301,11.119,29.377,19.332c5.433,6.254,6.886,8.971,11.498,21.164c6.697,17.626,10.677,32.157,13.772,50.352
			c0.758,4.359,1.895,10.866,2.527,14.531c0.632,3.664,1.39,9.224,1.579,12.446c0.569,7.265,0.569,23.122,0.063,26.471
			c-0.19,1.327-0.505,3.727-0.695,5.307c-0.569,4.675-2.274,13.899-3.538,19.142c-2.022,8.529-7.392,18.258-12.698,23.059
			c-1.39,1.264-3.348,3.032-4.233,3.791c-2.401,2.211-9.034,6.507-9.413,6.128c-0.19-0.19,0.253-0.948,1.011-1.769
			c1.579-1.643,4.738-10.74,4.675-13.393c-0.063-2.338-3.096-22.112-4.233-27.166c-0.442-2.085-1.832-7.771-3.032-12.635
			c-2.338-9.034-3.348-14.088-3.096-15.099c0.379-1.2-0.695-2.906-1.769-2.906c-1.2,0-1.706,1.263-2.274,5.686
			c-0.442,3.222-3.412,12.067-7.013,20.848c-3.791,9.224-8.402,25.271-9.287,32.789c-0.189,1.579,0.063,4.422,0.695,6.886
			c1.327,5.244,4.422,8.908,9.161,10.677l3.222,1.2l-3.854,1.453c-2.085,0.821-4.801,1.516-6.065,1.643
			c-1.263,0.126-2.717,0.632-3.222,1.137c-0.505,0.569-5.433,2.022-10.866,3.285c-5.496,1.327-12.698,3.032-15.984,3.917
			c-5.749,1.516-19.9,5.054-25.902,6.507c-1.579,0.379-3.601,0.821-4.612,0.948c-0.948,0.19-4.17,0.948-7.202,1.643
			c-0.219,0.05-0.451,0.103-0.678,0.155h20.073c6.102-1.419,13.539-3.119,17.058-3.882c1.58-0.316,8.403-1.895,15.162-3.538
			c13.962-3.285,12.635-3.032,12.635-2.401c0,0.253-1.327,0.821-2.906,1.264c-3.601,0.948-6.57,3.791-6.57,6.254
			c0,0.757,0.21,1.571,0.539,2.303h9.939c-0.012-0.095-0.028-0.19-0.054-0.281c-0.379-1.2-0.758-1.263-3.222-0.884
			c-3.475,0.505-3.854-0.821-0.695-2.717c1.516-0.948,3.475-1.327,8.023-1.579c9.159-0.419,12.419,0.477,14.741,5.462h3.283
			c-0.718-2.296-1.469-4.147-2.041-4.767c-2.653-2.969-8.339-4.865-14.531-4.928c-1.453,0-2.022-1.453-0.885-2.211
			c0.316-0.19,3.98-1.516,8.086-2.906c9.54-3.348,15.857-6.254,19.964-9.224c1.832-1.263,3.411-2.527,3.601-2.717
			c0.189-0.19,1.39-1.264,2.717-2.401l2.401-2.085l2.906,2.59c1.579,1.39,4.359,3.222,6.128,4.043
			c3.917,1.832,22.049,7.518,27.229,8.592c2.085,0.442,5.623,1.2,7.897,1.769c3.285,0.884,7.518,1.074,21.796,1.074
			c18.953,0,32.157-0.569,38.79-1.579c2.274-0.379,6.002-0.948,8.276-1.264c2.274-0.379,4.991-0.821,6.002-0.948
			c1.074-0.126,2.464-0.379,3.159-0.505c0.695-0.19,2.527-0.505,4.106-0.758c4.738-0.821,18.763-6.57,24.955-10.235
			c11.498-6.823,23.88-15.668,28.808-20.532c5.054-4.865,11.309-12.572,11.309-13.836c0-0.253,0.821-1.895,1.769-3.538
			c6.381-10.93,9.413-24.702,9.919-45.045c0.379-16.615-1.643-28.492-8.971-52.12c-6.886-22.428-7.897-25.081-14.847-40.749
			c-0.695-1.516-1.327-3.096-1.39-3.475c-0.379-1.895-1.832-5.117-8.592-18.953c-4.106-8.339-9.224-18.258-11.435-22.112
			c-2.148-3.791-5.054-9.287-6.381-12.193c-2.654-5.686-6.444-17.626-7.139-22.428c-0.442-2.843-1.643-4.865-2.843-4.865
			c-1.263,0-1.895,2.59-1.453,5.496c0.505,3.538,0.442,17.373-0.126,20.09c-0.19,1.074-0.632,3.601-0.948,5.686
			c-3.095,21.669-2.717,20.469-10.929,35.063c-1.895,3.411-12.825,19.774-14.088,21.164c-0.695,0.695-2.021,2.274-3.032,3.475
			c-0.948,1.2-3.98,4.612-6.634,7.518c-2.653,2.969-6.191,6.949-7.96,8.845c-14.215,15.794-21.227,21.101-32.22,24.386
			c-3.096,0.948-6.381,1.958-7.265,2.338c-0.884,0.316-4.991,1.706-9.161,3.032c-7.328,2.274-7.96,2.401-19.584,2.78
			c-6.57,0.253-12.762,0.505-13.646,0.632c-0.885,0.126-1.958,0.063-2.274-0.19c-0.316-0.19-1.137-2.906-1.769-6.065
			c-0.632-3.096-1.327-5.939-1.579-6.318c-0.253-0.316-0.948-2.464-1.516-4.738c-1.706-6.191-4.106-13.836-5.496-17.373
			c-0.632-1.706-2.211-5.875-3.412-9.161c-3.475-9.161-7.265-15.099-14.151-22.112c-6.634-6.697-9.792-8.781-23.438-15.352
			c-8.971-4.296-27.229-10.803-33.357-11.877c-7.328-1.327-20.974-2.148-26.913-1.769c-3.285,0.253-9.097,1.074-12.825,1.769
			s-7.96,1.453-9.35,1.706c-11.814,1.769-15.984,2.906-35.695,9.666c-12.951,4.422-15.162,5.307-21.922,9.224
			c-3.285,1.895-6.128,3.475-6.255,3.475c-0.632,0-15.794,9.097-18.258,10.93c-1.39,1.011-5.938,5.37-10.108,9.666
			c-4.17,4.296-8.403,8.087-9.477,8.529c-1.011,0.379-5.307,0.884-9.54,1.011c-16.236,0.695-24.639-2.085-33.989-11.435
			c-3.98-3.98-5.812-6.444-8.276-11.119c-5.244-10.045-7.96-17.626-9.792-27.798c-4.549-24.639-5.623-34.115-5.686-48.014
			c0-9.792,1.327-24.955,2.78-31.02c0.821-3.664,5.18-13.077,6.76-14.783c0.316-0.316,0.568-1.011,0.568-1.579
			c0-0.569,0.885-1.832,1.896-2.843c1.074-1.011,1.895-2.085,1.895-2.401c0-1.011-6.571,0-9.54,1.453
			c-1.516,0.758-5.496,3.475-8.781,5.939c-3.285,2.464-7.708,5.623-9.792,6.949c-3.032,1.958-11.751,8.845-15.226,12.067
			c-0.379,0.379-2.211,1.895-4.043,3.475c-8.339,7.076-33.42,35-35.568,39.612c-0.379,0.821-0.885,1.453-1.137,1.453
			s-1.706,1.958-3.159,4.422c-1.516,2.401-2.969,4.422-3.222,4.422c-0.316,0-0.505,0.379-0.505,0.884c0,0.442-0.442,1.2-0.948,1.643
			c-2.274,1.895-14.278,29.124-17.942,40.686c-4.675,14.657-6.444,26.724-6.823,46.498c-0.379,17.879,0.126,23.186,3.033,34.494
			c4.928,19.079,13.962,34.242,30.451,51.173c4.486,4.675,6.886,6.507,12.446,9.666c3.791,2.148,8.213,4.359,9.919,4.865
			c1.643,0.569,3.601,1.2,4.296,1.516c1.39,0.569,10.487,2.653,16.742,3.791c2.274,0.442,8.529,0.884,13.899,1.011
			c5.37,0.126,16.489,0.379,24.639,0.632c13.583,0.379,15.415,0.316,21.48-0.884c3.664-0.758,7.581-1.516,8.781-1.706
			c1.137-0.19,2.906-0.758,3.917-1.327c1.643-0.821,1.958-0.821,2.78,0c1.453,1.453,1.137,2.148-2.085,4.486
			c-3.032,2.148-7.328,6.823-8.655,9.413c-0.379,0.695-1.011,1.895-1.453,2.59c-2.969,5.37-4.296,19.648-2.337,25.65
			c2.78,8.718,8.655,19.521,10.487,19.521c0.379,0,1.958,1.011,3.601,2.274c0.418,0.316,0.985,0.693,1.641,1.103h7.946
			C389.615,419.466,384.864,413.634,380.477,402.618z M657.378,277.971c13.646-0.19,14.594-0.253,20.406-2.022
			c32.788-9.855,33.926-10.487,54.584-32.283c4.738-4.991,9.16-9.666,9.792-10.424c0.632-0.695,2.653-3.032,4.422-5.054
			c8.908-10.108,21.859-30.893,24.765-39.738c1.832-5.496,3.854-17.5,3.854-22.743c0-4.233,0.885-4.422,2.211-0.442
			c1.769,5.244,6.254,15.036,14.088,30.451c3.791,7.455,7.96,15.984,9.224,18.953c1.327,2.969,2.906,6.507,3.538,7.897
			c5.812,12.762,11.625,28.619,14.215,38.853c0.126,0.505,1.264,4.233,2.527,8.213c2.338,7.455,4.422,15.478,5.117,19.837
			c0.189,1.327,0.505,3.032,0.632,3.791c0.126,0.695,0.442,2.338,0.569,3.538c0.189,1.2,0.505,3.159,0.695,4.359
			c0.948,5.749,0.063,24.449-1.643,35.126c-1.2,7.328-5.496,18.321-9.918,25.207c-5.307,8.339-10.551,13.014-27.103,24.133
			c-18.195,12.193-24.512,14.467-49.846,18.195c-13.709,2.022-17.563,2.338-32.22,2.59c-6.57,0.126-14.973,0.379-18.637,0.505
			c-4.549,0.253-7.644,0.063-9.855-0.505c-1.769-0.505-5.875-1.327-9.161-1.895c-3.222-0.569-8.402-1.832-11.561-2.78
			c-3.159-1.011-8.213-2.527-11.245-3.475c-3.538-1.074-6.949-2.653-9.855-4.612l-4.485-3.032l2.211-2.653
			c2.843-3.475,8.276-13.899,9.729-18.763c1.516-4.928,3.601-17.184,4.359-25.334c1.264-14.72,0.189-35.126-2.717-48.33
			c-0.442-2.085-2.274-12.319-2.717-15.162l-0.316-2.211L657.378,277.971z M387.805,355.299c-0.189,0.19-4.359,1.011-9.16,1.832
			c-7.518,1.327-16.236,2.274-16.805,1.895c-0.126-0.126-22.68-0.948-34.557-1.263c-16.995-0.442-33.989-5.244-45.297-12.762
			c-4.486-2.969-10.487-8.718-15.352-14.72c-1.579-1.895-2.969-3.601-3.222-3.791c-0.505-0.442-6.381-9.35-9.413-14.215
			c-4.991-8.213-9.729-23.186-11.624-36.958c-2.59-18.637,0.885-49.593,7.518-67.914c6.254-17.184,12.446-29.946,18.763-38.727
			c2.211-3.032,4.928-6.76,6.002-8.339c1.137-1.579,2.969-4.106,4.106-5.686c2.274-3.222,7.076-8.971,10.993-13.267
			c10.361-11.372,20.785-22.112,24.26-24.955c2.274-1.832,4.675-3.854,5.37-4.549c2.274-2.085,6.886-5.623,11.372-8.718
			c2.464-1.706,6.444-4.675,8.845-6.697c7.076-5.749,7.581-5.749,4.359-0.126c-5.37,9.476-6.886,19.142-6.886,43.465
			c0.063,14.025,0.632,19.648,4.043,38.853c3.096,17.437,5.623,25.839,10.677,35.379c3.475,6.633,6.002,10.108,10.361,14.341
			c6.507,6.254,13.457,9.729,22.175,10.993c4.549,0.695,14.72,0.505,17.816-0.316c0.695-0.126,2.274-0.505,3.475-0.758l2.148-0.442
			l-2.274,2.78c-2.338,2.906-6.886,10.108-7.644,12.193c-0.253,0.632-2.148,3.98-4.233,7.392c-2.085,3.412-3.791,6.381-3.791,6.57
			c0,0.126-0.695,1.769-1.516,3.601c-3.791,8.466-8.213,24.955-8.971,33.799c-1.074,12.383,0.126,29.061,2.653,36.642
			c0.569,1.643,2.148,5.496,3.601,8.592C386.984,352.456,387.995,355.109,387.805,355.299z"/>
		<path style="fill:#BA61F3;" d="M609.996,427.636c2.022,6.444,2.022,10.614,0.063,14.846c-1.706,3.727-3.917,5.433-8.086,6.444
			c-1.643,0.442-3.159,0.695-3.475,0.695c-0.253-0.063-1.2-0.253-2.085-0.379c-4.991-0.821-6.949-2.211-9.477-6.76
			c-2.906-5.244-2.401-9.982,1.706-15.415c0.906-1.246,1.301-2.238,1.191-3.067h-9.939c0.577,1.283,1.522,2.309,2.367,2.309
			c1.2,0,1.137,0.821-0.379,3.791c-1.895,3.664-1.706,9.35,0.379,13.52c2.717,5.37,5.623,7.771,10.677,8.655
			c4.296,0.695,5.749,0.632,10.171-0.758c7.581-2.338,11.245-7.644,11.119-16.047c-0.039-2.676-1.133-7.679-2.318-11.469h-3.283
			C609.108,425.032,609.552,426.227,609.996,427.636z"/>
		<path style="fill:#BA61F3;" d="M406.632,431.3c0.569,0.505,6.886,2.59,10.677,3.538c12.635,3.032,49.151,4.233,57.806,1.895
			c0.506-0.126,2.464-0.442,4.359-0.632c2.78-0.316,18.448-2.843,32.599-5.37c5.812-1.011,19.269-3.791,24.512-4.991
			c1.725-0.416,4.4-1.045,7.392-1.74h-20.073c-2.917,0.666-6.395,1.443-7.977,1.677c-1.769,0.316-3.98,0.758-4.928,0.948
			c-8.655,1.643-23.123,4.043-28.619,4.738c-3.096,0.379-6.697,0.758-7.897,0.948c-1.2,0.126-3.791,0.442-5.686,0.632
			c-3.854,0.442-20.659,0.948-20.974,0.632c-0.126-0.063-2.906-0.316-6.191-0.505c-14.531-0.884-21.669-2.022-31.209-4.928
			c-4.336-1.332-7.994-2.668-11.135-4.141h-7.946c4.199,2.623,12.408,6.731,13.774,6.731
			C405.621,430.731,406.252,430.984,406.632,431.3z"/>
		<path style="fill:#BA61F3;" d="M560.339,392.067c1.832,6.318,5.496,10.74,10.677,12.951c3.412,1.39,5.433,1.2,8.15-0.758
			c2.401-1.769,2.653-2.274,3.98-7.771c0.821-3.222,1.516-8.087,1.643-10.866c0.253-6.697-0.442-7.328-6.381-5.812
			c-0.695,0.19-6.381,1.453-12.635,2.843c-6.254,1.327-14.088,3.348-17.374,4.422c-5.559,1.769-12.003,3.475-15.794,4.233
			c-0.885,0.126-2.843,0.569-4.422,0.884c-2.717,0.632-4.233,0.885-9.476,1.579c-1.2,0.19-3.601,0.632-5.37,0.948
			c-1.706,0.316-4.296,0.758-5.686,0.948s-4.675,0.758-7.265,1.263c-6.318,1.2-15.984,1.706-35.695,1.769
			c-20.09,0.063-24.449-0.442-34.621-3.791c-5.18-1.706-6.823-1.516-4.233,0.442c1.706,1.327,8.466,4.233,12.003,5.18
			c5.686,1.516,18.637,2.211,36.01,2.022c20.28-0.253,23.123-0.442,33.799-2.148c4.17-0.632,10.74-1.643,14.531-2.211
			c7.897-1.2,20.09-4.043,28.429-6.633C560.087,388.656,559.392,388.656,560.339,392.067z M565.141,387.898
			c0.506-0.569,15.099-3.917,15.415-3.538c0.316,0.316-1.263,8.592-2.464,13.077c-0.568,1.958-0.948,2.338-2.401,2.338
			c-1.516-0.063-4.17-1.516-6.191-3.475C568.489,395.352,564.762,388.214,565.141,387.898z"/>
		<path style="fill:#BA61F3;" d="M564.004,299.135c-5.939-5.117-9.792-5.939-15.352-3.538c-6.002,2.653-13.014,11.814-15.099,19.837
			c-1.896,7.455-2.464,23.691-1.011,30.514c0.506,2.211,1.516,4.865,2.211,5.939c1.58,2.338,6.57,5.054,10.108,5.56
			c4.043,0.569,16.931,0.253,18.826-0.505c5.875-2.338,10.551-20.722,9.224-36.137C571.964,310.001,569.374,303.747,564.004,299.135
			z M565.646,351.887c-1.516,3.348-1.706,3.538-4.296,3.917c-1.516,0.253-5.686,0.379-9.287,0.316
			c-11.119-0.126-16.047-3.096-17.563-10.424c-1.327-6.318-1.074-16.805,0.632-27.039c1.706-10.298,10.045-20.659,17.689-22.049
			c4.359-0.821,11.119,4.043,13.962,9.982C572.785,319.162,572.343,336.851,565.646,351.887z"/>
		<path style="fill:#BA61F3;" d="M547.388,318.467c-1.516,1.327-1.706,2.022-2.021,6.254c-0.379,6.507,0.316,11.688,1.832,13.204
			c1.453,1.453,3.285,1.516,5.307,0.19c1.706-1.074,3.475-7.518,3.475-12.446C555.98,318.53,551.621,314.866,547.388,318.467z"/>
		<path style="fill:#BA61F3;" d="M445.422,294.586c-2.59,0.379-5.307,1.011-6.002,1.39c-7.518,4.17-9.35,20.785-4.612,40.622
			c2.274,9.413,7.202,17.373,12.13,19.648c2.969,1.327,11.435,1.579,16.173,0.505c1.579-0.379,3.412-0.758,4.043-0.948
			c2.527-0.505,5.244-4.17,6.949-9.35c0.505-1.516,0.569-20.469,0.063-25.018c-0.569-4.738-2.717-12.383-4.422-15.794
			C465.638,297.619,455.656,293.07,445.422,294.586z M472.84,334.83l0.063,12.446l-2.59,3.664c-2.59,3.601-2.654,3.664-6.949,4.422
			c-10.045,1.706-16.552,0.569-19.837-3.601c-2.337-2.969-6.002-10.74-6.886-14.531c-2.085-9.476-3.348-20.28-2.843-24.133
			c0.126-1.137,0.379-3.159,0.569-4.422c0.632-4.486,2.717-8.971,4.865-10.424c2.337-1.516,8.971-2.717,12.446-2.274
			c2.527,0.379,9.666,3.032,11.94,4.485c2.59,1.643,5.812,8.15,7.518,15.226C472.651,321.752,472.84,323.584,472.84,334.83z"/>
		<path style="fill:#BA61F3;" d="M452.308,314.297c-2.717,0.505-3.917,3.538-3.538,8.781c0.189,2.401,0.442,4.801,0.569,5.307
			c0.948,3.475,2.022,5.812,3.222,6.633c1.769,1.264,5.117,1.2,6.191-0.126c0.632-0.695,0.885-2.78,0.885-6.76
			C459.573,318.467,456.857,313.413,452.308,314.297z"/>
		<path style="fill:#BA61F3;" d="M522.181,347.339c0.189-0.316-0.063-1.453-0.632-2.464c-5.243-10.235,10.487-42.834,23.754-49.214
			c3.664-1.769,9.666-2.401,13.646-1.453c4.17,1.074,13.836,5.875,16.868,8.402c10.108,8.402,11.751,12.256,12.761,29.566
			c0.189,3.98,0.632,7.518,0.885,7.834c0.885,0.885,1.706-1.643,2.085-6.254c0.253-2.401,0.695-6.949,1.074-9.982
			c0.505-4.486,0.442-6.318-0.316-9.603c-1.39-6.191-2.59-8.529-5.939-11.688c-6.76-6.381-8.466-7.455-18.7-12.067
			c-6.886-3.032-8.023-3.348-12.32-3.348c-9.729-0.126-16.931,3.538-23.691,11.94c-1.39,1.769-2.716,3.285-2.969,3.348
			c-0.316,0.126-0.505,0.505-0.505,0.758c0,0.316-0.884,2.022-1.895,3.791c-1.074,1.832-2.653,4.991-3.538,7.139
			c-0.885,2.148-2.211,5.18-2.969,6.76c-1.832,4.043-3.538,12.256-3.601,16.931c0,3.727,1.074,7.518,2.59,9.413
			C519.591,348.097,521.612,348.223,522.181,347.339z"/>
		<path style="fill:#BA61F3;" d="M473.282,301.536c1.895,2.843,8.276,21.796,9.413,28.05c0.379,2.211,0.884,6.76,1.074,10.108
			c0.189,3.348,0.442,6.191,0.569,6.318c1.39,1.516,3.159-12.888,2.59-21.038c-0.379-5.749-3.917-19.016-6.381-24.007
			c-2.401-4.865-5.054-7.265-11.435-10.235c-9.287-4.422-19.395-6.128-27.797-4.738c-19.206,3.222-26.787,8.339-32.157,21.733
			c-3.412,8.592-4.296,14.973-2.906,21.733c2.843,13.772,3.285,15.352,4.801,16.552c1.958,1.516,3.664,1.074,3.096-0.821
			c-0.189-0.695-0.632-3.159-0.948-5.433s-0.758-5.117-0.948-6.318c-0.821-4.612-0.758-13.014,0.063-16.426
			c1.327-5.244,6.191-14.72,8.655-16.868c4.549-3.98,13.899-6.949,25.586-8.15C454.772,291.112,469.934,296.545,473.282,301.536z"/>
	</g>
</g>
</svg>
