<?xml version="1.0" encoding="iso-8859-1"?>
<!-- Generator: Adobe Illustrator 22.1.0, SVG Export Plug-In . SVG Version: 6.00 Build 0)  -->
<svg version="1.1" id="pc" xmlns="http://www.w3.org/2000/svg" xmlns:xlink="http://www.w3.org/1999/xlink" x="0px" y="0px"
	 viewBox="0 0 322.337 221.337" style="enable-background:new 0 0 322.337 221.337;" xml:space="preserve">
<g id="body">
	<g>
		<path style="fill:none;stroke:#F8F8F8;stroke-miterlimit:10;" d="M15.241,20.506c0,0-1.405-14.755,21.781-13.349
			s233.966-3.513,233.966-3.513s18.97-2.81,18.97,12.647c0,10.461-3.54,94.288-5.828,147.39
			c-1.093,25.364-1.901,43.718-1.901,43.718s-1.405,12.647-14.052,11.944c-12.647-0.703-248.721-16.16-248.721-16.16
			s-16.862,2.108-15.457-17.565S15.241,20.506,15.241,20.506z"/>
		<path style="fill:none;stroke:#F8F8F8;stroke-miterlimit:10;" d="M284.337,163.837h0.703l30.212,1.405c0,0,7.026,0,3.513,4.216
			c-2.989,3.587-25.307,30.572-31.898,38.541c-1.155,1.397-2.761,3.962-5.824,3.533"/>
	</g>
	<path style="fill:none;stroke:#F8F8F8;stroke-miterlimit:10;" d="M319.744,167.464l-0.277,4.101c0,0,0,0.703-0.703,1.405
		c-0.703,0.703-34.427,42.156-34.427,42.156s-3.089,4.975-17.002,4.244"/>
</g>
<g id="ring">
	<path style="fill:none;stroke:#F8F8F8;stroke-miterlimit:10;" d="M124.847,97.09c0,0-3.513,4.216-2.81,11.242
		c0.703,7.026,1.405,7.026,4.216,11.944c2.81,4.918,5.621,6.323,9.134,4.216s6.323,0,6.323,0s4.216,2.81,7.026,0.703
		c2.81-2.108,3.513-3.513,4.918-5.621c1.405-2.108,2.81-4.918,2.81-4.918s-3.513-2.81-4.216-4.216
		c-0.703-1.405-2.108-4.918-1.405-7.026s0.703-3.513,4.918-7.026c0,0-4.918-4.918-7.026-4.918s-7.026,1.405-8.431,2.81
		c0,0-4.918-3.513-7.026-2.81S128.36,93.577,124.847,97.09z"/>
	<path style="fill:none;stroke:#F8F8F8;stroke-miterlimit:10;" d="M140.304,91.469c0,0-0.703-5.621,2.108-7.729
		c0,0,3.513-2.81,6.323-2.108c0,0,0.703,4.216-1.405,6.323S142.412,92.172,140.304,91.469z"/>
</g>
<g id="content">
	
		<line style="fill:none;stroke:#F8F8F8;stroke-linecap:round;stroke-linejoin:bevel;stroke-miterlimit:10;" x1="123.02" y1="103.132" x2="134.051" y2="92.101"/>
	
		<line style="fill:none;stroke:#F8F8F8;stroke-linecap:round;stroke-linejoin:bevel;stroke-miterlimit:10;" x1="122.704" y1="107.664" x2="137.177" y2="93.191"/>
	
		<line style="fill:none;stroke:#F8F8F8;stroke-linecap:round;stroke-linejoin:bevel;stroke-miterlimit:10;" x1="123.16" y1="111.423" x2="139.812" y2="94.771"/>
	
		<line style="fill:none;stroke:#F8F8F8;stroke-linecap:round;stroke-linejoin:bevel;stroke-miterlimit:10;" x1="124.003" y1="114.796" x2="146.206" y2="92.593"/>
	
		<line style="fill:none;stroke:#F8F8F8;stroke-linecap:round;stroke-linejoin:bevel;stroke-miterlimit:10;" x1="125.479" y1="117.536" x2="150.21" y2="92.804"/>
	
		<line style="fill:none;stroke:#F8F8F8;stroke-linecap:round;stroke-linejoin:bevel;stroke-miterlimit:10;" x1="127.077" y1="120.153" x2="152.687" y2="94.543"/>
	
		<line style="fill:none;stroke:#F8F8F8;stroke-linecap:round;stroke-linejoin:bevel;stroke-miterlimit:10;" x1="129.062" y1="122.384" x2="151.194" y2="100.252"/>
	
		<line style="fill:none;stroke:#F8F8F8;stroke-linecap:round;stroke-linejoin:bevel;stroke-miterlimit:10;" x1="132.575" y1="123.086" x2="150.14" y2="105.521"/>
	
		<line style="fill:none;stroke:#F8F8F8;stroke-linecap:round;stroke-linejoin:bevel;stroke-miterlimit:10;" x1="138.196" y1="121.681" x2="150.843" y2="109.034"/>
	
		<line style="fill:none;stroke:#F8F8F8;stroke-linecap:round;stroke-linejoin:bevel;stroke-miterlimit:10;" x1="141.709" y1="122.384" x2="152.248" y2="111.845"/>
	
		<line style="fill:none;stroke:#F8F8F8;stroke-linecap:round;stroke-linejoin:bevel;stroke-miterlimit:10;" x1="144.519" y1="123.789" x2="154.356" y2="113.952"/>
</g>
</svg>
