<?xml version="1.0" encoding="iso-8859-1"?>
<!-- Generator: Adobe Illustrator 22.1.0, SVG Export Plug-In . SVG Version: 6.00 Build 0)  -->
<svg version="1.1" id="soccer" xmlns="http://www.w3.org/2000/svg" xmlns:xlink="http://www.w3.org/1999/xlink" x="0px" y="0px"
	 viewBox="0 0 256 256" style="enable-background:new 0 0 256 256;" xml:space="preserve">
<path id="line" style="fill:#F9F9F9;" d="M252.277,146.086c0.021,0.287-1.167,6.631-1.357,7.538
	c-1.127,5.379-2.52,10.69-4.517,15.815c-1.739,4.464-3.472,8.944-5.504,13.277c-2.628,5.606-5.835,10.908-9.331,16.025
	c-5.152,7.541-11.043,14.46-17.688,20.716c-4.892,4.606-10.05,8.919-15.722,12.537c-4.563,2.911-9.201,5.729-13.968,8.288
	c-3.534,1.897-7.267,3.471-11.022,4.899c-4.343,1.651-8.766,3.123-13.23,4.41c-3.403,0.981-6.917,1.583-10.392,2.3
	c-8.123,1.677-16.354,2.207-24.623,2.095c-5.612-0.076-11.227-0.373-16.762-1.399c-4.717-0.874-9.477-1.626-14.099-2.873
	c-4.832-1.303-9.521-3.136-14.278-4.721c-0.273-0.091-10.43-4.136-10.562-4.672c-12.93-6.685-38.944-30.083-39.132-30.941
	C8.126,182.879-1.893,152.188,0.147,117.638c-0.164-3.797,0.667-7.491,0.684-8.575c0.002-0.109-0.016-0.223,0.007-0.327
	c0.677-2.987,1.292-5.99,2.056-8.954C3.908,95.851,4.887,91.9,6.16,88.049c1.42-4.297,2.994-8.559,4.787-12.714
	c2.864-6.638,6.466-12.884,10.464-18.919c5.441-8.212,11.827-15.603,19.006-22.309c5.448-5.089,11.325-9.646,17.609-13.684
	c6.24-4.01,12.735-7.54,19.597-10.323c4.57-1.853,9.26-3.454,13.985-4.872C95.705,4,99.887,2.951,104.102,2.252
	c5.165-0.856,10.396-1.341,15.613-1.834c2.659-0.251,5.368-0.006,8.015-0.32c1.015-0.12,1.877-0.088,2.876,0.034
	c5.419,0.661,10.878,1.012,16.289,1.73c3.766,0.499,7.521,1.244,11.2,2.193c3.929,1.014,7.822,2.239,11.622,3.663
	c4.446,1.666,8.864,3.465,13.129,5.543c4.141,2.017,8.173,4.303,12.077,6.75c10.099,6.329,19.054,14.038,26.939,22.982
	c0.024,0.028,2.567,3.445,4.084,4.948c1.548,1.533,2.761,3.417,4.037,5.207c1.276,1.79,2.439,3.661,3.67,5.484
	c3.227,4.781,5.945,9.855,8.31,15.095c1.879,4.163,3.469,8.463,5.029,12.76c1.059,2.918,1.946,5.91,2.724,8.916
	c0.751,2.903,1.378,5.848,1.852,8.809c0.711,4.447,1.452,8.907,1.788,13.391c0.337,4.49,0.299,9.019,0.225,13.527
	c-0.054,3.257-0.463,6.507-0.649,9.764C252.898,141.48,252.239,145.578,252.277,146.086z M48.041,133.937
	c1.516,1.937,3.668,1.878,4.27,1.937c5.33,0.53,11.038,0.53,16.373,1.011c8.411,0.758,16.831,1.311,25.283,1.284
	c0.966-0.003,1.525-0.326,2.066-1.089c3.771-5.32,7.535-10.646,11.395-15.902c5.813-7.917,11.611-15.847,18.17-23.182
	c0.267-0.298,0.418-0.887,0.333-1.278c-0.265-1.213-0.612-2.416-1.03-3.585c-1.369-3.825-2.753-7.645-4.19-11.445
	c-1.645-4.35-3.32-8.689-5.044-13.008c-1.589-3.979-3.295-7.912-4.868-11.897c-0.358-0.906-0.822-1.371-1.78-1.481
	c-3.352-0.385-6.691-0.908-10.05-1.205c-5.297-0.468-10.601-0.99-15.912-1.117c-4.019-0.097-8.062,0.272-12.073,0.663
	c-1.842,0.179-3.777,0.353-5.303,1.812c-3.015,2.883-6.119,5.673-9.213,8.472c-0.425,0.384-4.941,6.432-5.493,7.108
	c-4.971,6.094-9.473,12.488-12.694,19.702c-0.828,1.855-1.901,3.664-1.55,5.861c0.237,1.483,0.306,2.994,0.555,4.474
	c0.402,2.383,0.844,4.761,1.356,7.122c0.55,2.536,1.126,5.07,1.829,7.566c0.615,2.185,1.415,4.318,2.142,6.471
	C43.988,126.305,45.871,130.145,48.041,133.937z M164.427,33.483c-2.489-0.58-4.958-1.297-7.477-1.687
	c-3.727-0.577-7.486-0.952-11.24-1.339c-1.003-0.104-2.148-0.212-3.031,0.155c-2.461,1.024-4.917,2.133-7.192,3.511
	c-2.81,1.703-5.537,3.581-8.12,5.614c-4.612,3.629-8.494,7.959-11.545,12.994c-0.193,0.318-0.298,0.855-0.168,1.179
	c1.688,4.174,3.462,8.314,5.143,12.491c2.022,5.026,4.06,10.048,5.934,15.129c1.658,4.494,3.116,9.063,4.625,13.611
	c0.24,0.724,0.683,1.05,1.368,1.256c3.962,1.192,7.926,2.378,11.87,3.627c4.434,1.404,8.871,2.809,13.266,4.329
	c6.228,2.154,12.424,4.398,18.618,6.648c0.751,0.273,1.277,0.215,1.89-0.281c3.19-2.579,6.431-5.096,9.609-7.689
	c6.332-5.167,12.428-10.599,18.098-16.491c0.359-0.373,0.595-1.105,0.52-1.616c-0.357-2.426-0.748-4.856-1.306-7.242
	c-0.665-2.847-1.34-5.714-2.347-8.448c-0.562-1.526-2.93-8.419-3.115-8.854c-1.807-4.259-3.998-8.313-6.796-12.01
	c-0.88-1.162-1.715-2.496-2.888-3.271c-2.894-1.911-5.944-3.594-8.982-5.277c-4.472-2.477-9.316-4.033-14.181-5.513
	C166.721,34.229,164.627,33.53,164.427,33.483z M52.368,202.248c2.228,2.429,4.349,4.963,6.68,7.287
	c1.574,1.569,3.279,3.136,5.208,4.181c2.028,1.098,4.347,1.797,6.622,2.271c3.93,0.818,7.779,2.056,11.832,2.3
	c3.69,0.222,7.365,0.779,11.055,0.869c3.732,0.091,7.474-0.184,11.208-0.375c0.501-0.026,1.14-0.382,1.436-0.789
	c0.839-1.152,1.6-2.374,2.273-3.631c2.833-5.29,5.778-10.529,8.381-15.931c2.124-4.408,3.808-9.028,5.716-13.541
	c0.295-0.697,0.113-1.154-0.382-1.646c-5.922-5.889-10.998-12.464-15.636-19.387c-4.162-6.212-7.962-12.638-11.316-19.328
	c-0.209-0.417-0.863-0.836-1.332-0.863c-6.153-0.348-12.313-0.582-18.466-0.933c-4.943-0.282-9.881-0.662-14.819-1.036
	c-3.767-0.286-7.531-0.617-11.293-0.962c-0.842-0.077-1.304,0.207-1.746,0.955c-4.231,7.153-7.865,14.572-9.934,22.656
	c-0.633,2.471-1.019,5.031-1.233,7.575c-0.234,2.779,1.313,5.142,2.445,7.521c1.964,4.125,4.144,8.149,6.292,12.184
	c0.762,1.431,1.694,2.771,2.541,4.14C50.476,200.139,51.756,201.581,52.368,202.248z M175.521,150.017
	c0.082-0.431,0.203-0.86,0.231-1.295c0.254-3.881,0.502-7.762,0.73-11.644c0.343-5.845-0.098-11.658-0.603-17.478
	c-0.197-2.272-1.022-3.558-3.294-4.287c-5.33-1.71-10.559-3.731-15.859-5.537c-3.881-1.322-7.806-2.519-11.721-3.741
	c-4.722-1.474-9.458-2.904-14.178-4.386c-0.71-0.223-1.159-0.073-1.62,0.486c-2.188,2.658-4.537,5.195-6.59,7.953
	c-7.131,9.583-14.097,19.289-21.289,28.825c-1.392,1.846-1.344,3.159-0.31,5.041c3.991,7.267,8.192,14.395,13.059,21.117
	c3.789,5.233,7.842,10.244,12.455,14.78c0.349,0.343,0.946,0.669,1.398,0.634c2.777-0.218,5.597-0.305,8.307-0.882
	c5.046-1.074,10.07-2.303,15.023-3.743c7.523-2.187,14.585-5.505,21.382-9.383c0.372-0.212,0.785-0.65,0.856-1.041
	c0.492-2.707,0.879-5.432,1.341-8.144C175.006,156.32,175.391,150.705,175.521,150.017z M223.216,175.672
	c0.597-0.591,1.154-1.224,1.712-1.854c5.639-6.361,9.117-13.832,11.212-21.995c1.42-5.532,2.01-11.189,2.108-16.879
	c0.105-6.104-0.532-12.153-1.806-18.137c-0.789-3.709-1.737-7.224-4.333-10.26c-4.444-5.196-9.273-9.863-15.277-13.21
	c-1.595-0.889-3.216-1.734-4.848-2.552c-0.811-0.407-1.572-0.567-2.38,0.247c-1.701,1.716-3.52,3.315-5.279,4.973
	c-7.125,6.714-14.632,12.977-22.421,18.901c-0.93,0.707-1.131,1.42-1.012,2.514c0.397,3.643,0.964,7.298,0.961,10.948
	c-0.006,6.489-0.188,12.991-0.663,19.461c-0.391,5.33-1.171,10.645-2.067,15.918c-0.364,2.14-0.157,3.551,1.75,4.81
	c4.582,3.026,9.001,6.299,13.587,9.317c3.113,2.048,6.373,3.878,9.618,5.715c1.49,0.843,2.94,1.866,4.462,2.004
	c2.595-1.063,2.595-1.063,3.285-1.454C212.872,183.483,222.647,176.236,223.216,175.672z M203.792,193.712
	c-0.918-3.672-1.644-3.815-1.91-3.998c-4.011-2.755-8.069-5.443-12.073-8.207c-4.643-3.205-9.266-6.439-13.842-9.738
	c-0.745-0.537-1.171-0.474-1.911-0.088c-3.537,1.845-7.058,3.739-10.695,5.369c-5.927,2.657-12.067,4.731-18.402,6.223
	c-5.079,1.197-10.184,2.205-15.408,2.444c-0.838,0.038-1.265,0.358-1.514,1.124c-1.945,5.978-4.748,11.584-7.589,17.162
	c-2.757,5.414-5.648,10.76-8.547,16.1c-0.438,0.807-0.322,1.249,0.325,1.744c2.784,2.128,5.507,4.34,8.353,6.381
	c4.577,3.284,9.566,5.826,14.927,7.554c1.756,0.566,3.652,1.014,5.477,0.988c5.211-0.075,10.38-0.744,15.447-2.009
	c3.753-0.937,7.59-1.683,11.195-3.035c4.335-1.626,8.535-3.662,12.661-5.779c5.029-2.58,9.503-5.915,13.02-10.457
	c3.688-4.763,6.398-10.026,8.544-15.623C202.439,198.329,203.897,194.133,203.792,193.712z M66.325,26.314
	c-0.936-0.598-2.024-1.249-3.063-1.971c-0.667-0.464-1.203-0.403-1.878,0.019c-6.3,3.933-12.125,8.48-17.541,13.551
	c-6.552,6.134-12.402,12.87-17.485,20.281c-3.907,5.697-7.309,11.672-10.194,17.938c-3.257,7.074-5.845,14.387-7.651,21.974
	c-0.405,1.701-0.265,3.099,1.321,4.047c2.122-1.354,7.172-4.532,7.677-4.751c1.209-0.525,2.361-1.211,3.605-1.623
	c3.159-1.045,6.35-1.994,9.542-2.935c0.763-0.225,1.194-0.562,1.524-1.352c1.06-2.53,2.126-5.077,3.456-7.47
	c4.122-7.415,8.967-14.32,14.871-20.454c1.318-1.369,2.414-2.953,3.742-4.309c2.693-2.75,5.486-5.402,8.207-8.125
	c0.328-0.328,0.648-0.84,0.662-1.277c0.2-6.283,0.964-12.502,2.076-18.681C65.473,29.636,65.9,28.124,66.325,26.314z
	 M137.955,26.403c-0.293-0.344-0.457-0.575-0.659-0.767c-3.349-3.206-6.923-6.137-11.009-8.353
	c-3.207-1.739-6.545-3.206-10.353-2.72c-3.454,0.44-6.93,0.78-10.348,1.423c-5.438,1.023-10.785,2.408-15.999,4.326
	c-5.394,1.984-10.426,4.627-15.292,7.651c-1.705,1.06-2.738,2.54-3.201,4.401c-0.881,3.549-1.701,7.116-2.448,10.696
	c-0.321,1.538-0.398,3.127-0.579,4.694c-0.082,0.71,0.19,1.049,0.948,0.891c0.646-0.135,1.293-0.293,1.948-0.351
	c5.266-0.468,10.533-0.902,15.828-0.508c3.183,0.237,6.381,0.338,9.55,0.698c4.701,0.533,9.38,1.256,14.075,1.843
	c0.351,0.044,0.885-0.251,1.117-0.555c1.736-2.267,3.288-4.686,5.14-6.85c5.047-5.901,11.088-10.627,17.789-14.522
	C135.588,27.747,136.723,27.107,137.955,26.403z M31.216,170.155c0.111-0.455,0.177-0.625,0.191-0.8
	c0.337-4.021,1.452-7.882,3.014-11.539c2.21-5.176,4.824-10.179,7.211-15.281c0.204-0.436,0.58-1.152,2.405-4.182
	c0.451-0.774,0.031-1.403-0.307-2.031c-0.797-1.483-1.643-2.94-2.402-4.441c-2.369-4.688-4.186-9.6-5.713-14.614
	c-0.821-2.696-1.547-5.43-2.125-8.187c-0.677-3.224-1.168-6.489-1.692-9.744c-0.147-0.911-0.617-1.083-1.375-0.833
	c-1.177,0.389-2.335,0.84-3.518,1.209c-3.65,1.139-6.846,3.082-9.799,5.464c-1.953,1.574-3.436,3.309-3.692,6.057
	c-0.4,4.297-1.478,8.542-1.716,12.839c-0.376,6.772-0.418,13.574,0.618,20.32c0.234,1.52,0.28,3.14,0.868,4.52
	c1.215,2.851,2.736,5.572,4.131,8.347c0.212,0.422,0.396,0.862,0.641,1.265c0.582,0.956,1.067,2.014,1.823,2.812
	c1.094,1.156,2.373,2.142,3.607,3.159c1.582,1.304,3.168,2.608,4.811,3.833C29.088,168.991,30.101,169.489,31.216,170.155z
	 M238.011,103.028c1.197-0.989,2.867-7.72,3.119-9.101c0.155-0.853,0.182-1.729,0.339-2.581c0.35-1.898,0.569-3.826-0.114-5.654
	c-1.215-3.256-2.455-6.514-3.912-9.666c-3.265-7.061-7.179-13.76-11.728-20.08c-0.89-1.237-9.172-11.25-9.316-11.403
	c-0.878-0.933-1.732-1.894-2.672-2.761c-0.805-0.742-1.763-1.188-2.924-0.884c-0.883,0.231-1.781,0.41-2.66,0.657
	c-3.205,0.902-6.405,1.822-9.606,2.737c-0.619,0.177-0.738,0.522-0.367,1.06c3.12,4.528,5.486,9.444,7.504,14.543
	c0.125,0.315,1.794,5.273,2.134,6.413c1.719,5.767,3.059,11.63,3.858,17.598c0.144,1.078,0.683,1.519,1.538,1.852
	c5.144,2.003,9.971,4.605,14.499,7.755c2.585,1.799,5.144,3.623,7.125,6.148C235.783,100.876,236.953,101.921,238.011,103.028z
	 M122.533,9.396c0.565,0.254,0.835,0.36,1.091,0.492c2.436,1.253,4.979,2.34,7.281,3.804c4.384,2.786,8.137,6.354,11.645,10.169
	c0.611,0.665,1.256,0.984,2.176,1.056c3.875,0.305,7.768,0.53,11.606,1.109c3.869,0.584,7.721,1.394,11.503,2.4
	c3.633,0.966,7.296,2.02,10.712,3.556c4.798,2.157,9.372,4.812,14.068,7.202c0.531,0.27,1.267,0.376,1.851,0.262
	c3.986-0.776,7.958-1.625,11.93-2.474c0.324-0.069,0.778-0.246,0.869-0.487c0.095-0.251-0.088-0.726-0.306-0.953
	c-0.684-0.711-1.421-1.377-2.176-2.014c-5.531-4.671-11.465-8.769-17.755-12.344c-5.097-2.897-10.361-5.468-15.854-7.522
	c-3.563-1.332-7.175-2.546-10.811-3.664c-2.624-0.807-5.301-1.48-7.995-2.013c-3.629-0.718-7.281-1.368-10.951-1.817
	c-3.563-0.436-7.157-0.698-10.745-0.818C127.381,5.23,125.12,7.409,122.533,9.396z M132.254,242.792
	c-0.688-0.387-1.074-0.646-1.492-0.834c-4.327-1.939-8.37-4.368-12.196-7.153c-4.038-2.938-7.75-6.255-11.201-9.869
	c-0.373-0.391-1.069-0.77-1.559-0.708c-6.613,0.838-13.261,0.559-19.867,0.29c-4.73-0.193-9.432-1.292-14.125-2.107
	c-2.088-0.363-4.127-1.015-6.184-1.552c-0.809-0.211-1.274-0.054-1.248,0.906c0.04,1.465-0.039,2.935,0.055,4.396
	c0.278,4.318,2.211,7.443,6.374,9.148c4.775,1.955,9.425,4.22,14.211,6.146c5.657,2.277,11.552,3.821,17.528,5.018
	c5.508,1.103,11.062,1.888,16.679,2.186c2.609,0.139,5.187,0.385,7.412-1.51C128.38,245.67,130.246,244.341,132.254,242.792z
	 M42.398,198.356c-4.167-6.789-7.764-13.859-10.591-21.316c-0.185-0.488-0.632-0.984-1.089-1.245
	c-2.791-1.599-5.66-3.066-8.421-4.713c-1.279-0.764-2.435-1.771-3.531-2.792c-0.714-0.665-1.182-1.586-1.826-2.336
	c-0.787-0.917-1.598-1.822-2.48-2.646c-0.833-0.778-1.752-1.469-2.672-2.145c-0.322-0.236-0.76-0.314-1.145-0.464
	c-0.094,0.437-0.357,0.918-0.255,1.302c0.622,2.334,1.202,4.691,2.029,6.956c1.962,5.37,4.324,10.563,7.01,15.62
	c3.642,6.855,7.952,13.253,12.804,19.293c0.996,1.24,7.251,8.13,7.4,8.285c5.872,6.094,12.389,11.418,19.392,16.153
	c0.293,0.198,0.782,0.295,1.099,0.192c0.184-0.06,0.285-0.613,0.29-0.947c0.037-2.09-0.095-4.192,0.09-6.266
	c0.144-1.618-0.234-2.659-1.602-3.681c-4.373-3.267-8.016-7.287-11.318-11.623C47.339,205.662,42.551,198.605,42.398,198.356z
	 M196.578,222.899c0.136,0.115,0.207,0.212,0.3,0.246c0.205,0.073,0.42,0.14,0.635,0.165c2.245,0.251,4.322-0.195,6.074-1.668
	c2.216-1.862,4.441-3.72,6.553-5.697c5.954-5.574,11.297-11.685,16.009-18.353c4.752-6.725,8.698-13.887,12.185-21.343
	c1.338-2.861,0.349-5.223-0.497-7.861c-0.254,0.494-0.42,0.89-0.65,1.244c-0.259,0.399-0.584,0.753-0.865,1.139
	c-5.148,7.075-11.583,12.697-19.197,16.98c-2.252,1.267-4.539,2.471-6.796,3.728c-0.185,0.103-0.336,0.375-0.386,0.595
	c-0.477,2.106-0.806,4.254-1.416,6.32c-1.078,3.648-2.114,7.331-3.548,10.844c-1.944,4.762-4.65,9.126-8.071,13.01
	C196.753,222.424,196.687,222.679,196.578,222.899z M244.702,97.064c-0.079,0.022-0.157,0.043-0.236,0.065
	c-0.623,2.432-1.191,4.88-1.886,7.29c-0.578,2.003-1.043,3.826-0.455,6.066c1.074,4.091,1.654,8.327,2.218,12.532
	c0.901,6.716,0.881,13.457,0.148,20.2c-0.5,4.604-1.36,9.128-2.788,13.536c-0.474,1.464-1.035,2.902-1.449,4.382
	c-0.143,0.511-0.021,1.127,0.091,1.672c0.131,0.639,0.41,1.246,0.572,1.88c0.088,0.344,0.588,1.554,0.835,1.794
	c0.189-0.235,0.463-0.443,0.552-0.711c0.583-1.771,1.216-3.534,1.664-5.341c1.013-4.086,2.131-8.162,2.829-12.306
	c0.735-4.367,1.054-8.805,1.513-13.216c0.688-6.601,0.357-13.204-0.28-19.778c-0.406-4.188-1.159-8.346-1.881-12.496
	C245.821,100.75,245.193,98.919,244.702,97.064z M131.284,248.503c0.124,0.084,0.203,0.181,0.289,0.188
	c0.328,0.028,0.662,0.064,0.988,0.032c4.413-0.435,8.868-0.629,13.226-1.387c5.478-0.952,10.962-2.077,16.283-3.666
	c5.133-1.533,10.109-3.638,15.068-5.699c5.692-2.366,10.999-5.495,16.189-8.809c0.344-0.22,0.561-0.64,0.883-1.02
	c-1.925-0.918-3.523-1.127-5.058,0.338c-0.649,0.619-1.518,1.011-2.296,1.492c-5.837,3.605-11.941,6.662-18.493,8.736
	c-3.584,1.135-7.179,2.311-10.851,3.079c-6.431,1.346-12.958,2.079-19.547,2.113c-0.378,0.002-0.829,0.089-1.119,0.307
	C134.985,245.603,133.159,247.046,131.284,248.503z M120.158,5.954c-0.057-0.118-0.113-0.235-0.17-0.353
	c-0.42-0.027-0.846-0.113-1.259-0.072c-2.664,0.262-5.329,0.516-7.986,0.84c-7.081,0.864-14.036,2.37-20.782,4.667
	c-4.883,1.663-9.699,3.555-14.446,5.577c-3.023,1.288-5.867,2.995-8.786,4.525c-0.735,0.385-0.862,0.896-0.152,1.432
	c0.848,0.64,1.687,1.305,2.604,1.829c0.308,0.176,0.954,0.108,1.258-0.11c7.015-5.026,14.805-8.427,23.001-10.946
	c6.465-1.987,13.09-3.301,19.823-3.872c2.335-0.198,4.219-0.934,5.87-2.482C119.487,6.658,119.817,6.3,120.158,5.954z
	 M7.551,151.827c0.116-0.004,0.231-0.008,0.347-0.012c-0.038-0.649-0.029-1.305-0.124-1.946c-0.149-1.012-0.446-2.007-0.54-3.022
	c-0.429-4.595-1.043-9.19-1.155-13.795c-0.21-8.681,0.673-17.281,2.761-25.735c0.315-1.275-0.257-2.131-1.762-2.499
	C4.093,120.543,4.329,136.199,7.551,151.827z M75.263,247.878 M216.644,44.987 M202.873,190.958 M203.792,190.958 M33.032,213.91
	 M39.459,212.074L39.459,212.074 M39.459,212.074 M0.9,109.251 M44.967,202.893"/>
</svg>
