<?xml version="1.0" encoding="iso-8859-1"?>
<!-- Generator: Adobe Illustrator 22.1.0, SVG Export Plug-In . SVG Version: 6.00 Build 0)  -->
<svg version="1.1" id="spider" xmlns="http://www.w3.org/2000/svg" xmlns:xlink="http://www.w3.org/1999/xlink" x="0px" y="0px"
	 viewBox="0 0 256 256" style="enable-background:new 0 0 256 256;" xml:space="preserve">
<g id="leg">
	<g>
		<polygon style="fill:#E20312;" points="47.628,18.089 47.577,87.547 59.479,79.919 59.479,24.512 		"/>
		<polygon style="fill:#E20312;" points="59.479,79.919 47.577,87.556 75.508,99.256 75.508,86.459 		"/>
		<polygon style="fill:#E20312;" points="22.464,118.901 22.242,234.013 33.998,223.212 34.529,125.235 75.508,99.256 
			61.803,93.515 		"/>
	</g>
	<polygon style="fill:#E20312;" points="91.994,77.823 80.564,73.243 80.564,39.815 68.712,33.391 68.678,80.769 78.883,84.845 
		78.804,102.356 48.61,121.203 48.986,207.905 60.675,196.687 60.675,127.537 91.994,107.619 	"/>
	<g>
		<polygon style="fill:#E20312;" points="206.372,18.165 194.521,24.588 194.521,79.995 206.423,87.623 		"/>
		<polygon style="fill:#E20312;" points="194.521,79.995 178.492,86.535 178.492,99.331 206.423,87.632 		"/>
		<polygon style="fill:#E20312;" points="231.536,118.977 192.197,93.591 178.492,99.331 219.471,125.311 220.002,223.288 
			231.758,234.089 		"/>
	</g>
	<polygon style="fill:#E20312;" points="175.117,84.921 185.322,80.845 185.288,33.467 173.436,39.891 173.436,73.319 
		162.006,77.899 162.006,107.695 193.325,127.613 193.325,196.763 205.014,207.981 205.39,121.279 175.196,102.432 	"/>
</g>
<path style="fill:#E20312;" d="M155.16,111.471c2.705-4.703,4.276-10.141,4.276-15.955c0-17.715-14.361-32.075-32.075-32.075
	c-17.715,0-32.075,14.361-32.075,32.075c0,5.815,1.571,11.252,4.276,15.955l-27.716,16.002v64.103l55.515,32.052l55.515-32.052
	v-64.103L155.16,111.471z"/>
</svg>
